<svg width="17" height="24" viewBox="0 0 17 24" fill="none" xmlns="http://www.w3.org/2000/svg">
<path d="M9.47626 6.73116C9.45178 3.65192 7.02363 1.143 3.97376 0.988788C3.87585 0.983893 3.77549 0.981445 3.67514 0.981445C1.75122 0.981445 0.192017 2.54065 0.192017 4.46457V7.87915H9.47626V6.78012C9.47626 6.76299 9.47626 6.74585 9.47626 6.73116Z" fill="#F3AA20"/>
<path d="M9.5399 7.87916H0.192017H9.47626V13.9985C9.47626 14.4268 9.12868 14.7769 8.69788 14.7769H2.98243C2.77437 14.7769 2.57121 14.8478 2.40721 14.98L0.664429 16.3875C0.475953 16.5392 0.192017 16.4046 0.192017 16.1623V20.7983V20.8032C0.192017 21.2438 0.549385 21.5987 0.987529 21.5987H6.88166C7.01874 21.6281 7.15091 21.6893 7.26106 21.7774L9.00385 23.1848C9.19232 23.3366 9.47626 23.202 9.47626 22.9596V21.5987H9.5399C13.329 21.5987 16.4009 18.5268 16.4009 14.7377C16.4009 10.9486 13.329 7.87671 9.5399 7.87671V7.87916Z" fill="#00A99D"/>
<path d="M0.192017 7.87916V16.1598C0.192017 16.4046 0.473506 16.5368 0.664429 16.385L2.40721 14.9776C2.57121 14.8454 2.77192 14.7744 2.98243 14.7744H8.69788C9.12623 14.7744 9.47626 14.4268 9.47626 13.996V7.87671H0.192017V7.87916Z" fill="#004741"/>
</svg>
