<svg width="21" height="20" viewBox="0 0 21 20" fill="none" xmlns="http://www.w3.org/2000/svg">
<g clip-path="url(#clip0_74_825)">
<path d="M14.1775 0.0100088C14.135 -0.0374912 12.6038 0.0287588 11.2713 1.47501C9.93876 2.92001 10.1438 4.57751 10.1738 4.62001C10.2038 4.66251 12.0738 4.72876 13.2675 3.04751C14.4613 1.36626 14.22 0.0587588 14.1775 0.0100088ZM18.32 14.6763C18.26 14.5563 15.4138 13.1338 15.6788 10.3988C15.9438 7.66251 17.7725 6.91251 17.8013 6.83126C17.83 6.75001 17.055 5.84376 16.2338 5.38501C15.6308 5.06157 14.9634 4.87627 14.28 4.84251C14.145 4.83876 13.6763 4.72376 12.7125 4.98751C12.0775 5.16126 10.6463 5.72376 10.2525 5.74626C9.85751 5.76876 8.68251 5.09376 7.41876 4.91501C6.61001 4.75876 5.75251 5.07876 5.13876 5.32501C4.52626 5.57001 3.36126 6.26751 2.54626 8.12126C1.73126 9.97376 2.15751 12.9088 2.46251 13.8213C2.76751 14.7325 3.24376 16.2263 4.05376 17.3163C4.77376 18.5463 5.72876 19.4 6.12751 19.69C6.52626 19.98 7.65126 20.1725 8.43126 19.7738C9.05876 19.3888 10.1913 19.1675 10.6388 19.1838C11.085 19.2 11.965 19.3763 12.8663 19.8575C13.58 20.1038 14.255 20.0013 14.9313 19.7263C15.6075 19.45 16.5863 18.4025 17.7288 16.2788C18.1625 15.2913 18.36 14.7575 18.32 14.6763Z" fill="#00100B"/>
<path d="M14.1775 0.0100088C14.135 -0.0374912 12.6038 0.0287588 11.2713 1.47501C9.93876 2.92001 10.1438 4.57751 10.1738 4.62001C10.2038 4.66251 12.0738 4.72876 13.2675 3.04751C14.4613 1.36626 14.22 0.0587588 14.1775 0.0100088ZM18.32 14.6763C18.26 14.5563 15.4138 13.1338 15.6788 10.3988C15.9438 7.66251 17.7725 6.91251 17.8013 6.83126C17.83 6.75001 17.055 5.84376 16.2338 5.38501C15.6308 5.06157 14.9634 4.87627 14.28 4.84251C14.145 4.83876 13.6763 4.72376 12.7125 4.98751C12.0775 5.16126 10.6463 5.72376 10.2525 5.74626C9.85751 5.76876 8.68251 5.09376 7.41876 4.91501C6.61001 4.75876 5.75251 5.07876 5.13876 5.32501C4.52626 5.57001 3.36126 6.26751 2.54626 8.12126C1.73126 9.97376 2.15751 12.9088 2.46251 13.8213C2.76751 14.7325 3.24376 16.2263 4.05376 17.3163C4.77376 18.5463 5.72876 19.4 6.12751 19.69C6.52626 19.98 7.65126 20.1725 8.43126 19.7738C9.05876 19.3888 10.1913 19.1675 10.6388 19.1838C11.085 19.2 11.965 19.3763 12.8663 19.8575C13.58 20.1038 14.255 20.0013 14.9313 19.7263C15.6075 19.45 16.5863 18.4025 17.7288 16.2788C18.1625 15.2913 18.36 14.7575 18.32 14.6763Z" fill="#00100B"/>
</g>
<defs>
<clipPath id="clip0_74_825">
<rect width="20" height="20" fill="white" transform="translate(0.200012)"/>
</clipPath>
</defs>
</svg>
