<svg width="126" height="24" viewBox="0 0 126 24" fill="none" xmlns="http://www.w3.org/2000/svg">
<path d="M10.4763 6.73116C10.4518 3.65192 8.02363 1.143 4.97376 0.988788C4.87585 0.983893 4.77549 0.981445 4.67514 0.981445C2.75122 0.981445 1.19202 2.54065 1.19202 4.46457V7.87915H10.4763V6.78012C10.4763 6.76299 10.4763 6.74585 10.4763 6.73116Z" fill="#F3AA20"/>
<path d="M10.5399 7.87916H1.19202H10.4763V13.9985C10.4763 14.4268 10.1287 14.7769 9.69788 14.7769H3.98243C3.77437 14.7769 3.57121 14.8478 3.40721 14.98L1.66443 16.3875C1.47595 16.5392 1.19202 16.4046 1.19202 16.1623V20.7983V20.8032C1.19202 21.2438 1.54939 21.5987 1.98753 21.5987H7.88166C8.01874 21.6281 8.15091 21.6893 8.26106 21.7774L10.0038 23.1848C10.1923 23.3366 10.4763 23.202 10.4763 22.9596V21.5987H10.5399C14.329 21.5987 17.4009 18.5268 17.4009 14.7377C17.4009 10.9486 14.329 7.87671 10.5399 7.87671V7.87916Z" fill="#00A99D"/>
<path d="M1.19202 7.87916V16.1598C1.19202 16.4046 1.47351 16.5368 1.66443 16.385L3.40721 14.9776C3.57121 14.8454 3.77192 14.7744 3.98243 14.7744H9.69788C10.1262 14.7744 10.4763 14.4268 10.4763 13.996V7.87671H1.19202V7.87916Z" fill="#004741"/>
<path d="M24.7294 21.7382C21.0651 21.7382 18.7202 19.3933 18.7202 15.6703V7.97461H21.5302V15.6703C21.5302 17.7827 22.7908 19.1387 24.7465 19.1387C26.7023 19.1387 27.9261 17.7827 27.9261 15.6703V7.97461H30.7361V15.6703C30.7361 19.3737 28.3716 21.7382 24.7269 21.7382H24.7294Z" fill="white"/>
<path d="M38.9972 21.7382C35.333 21.7382 32.988 19.3933 32.988 15.6703V7.97461H35.798V15.6703C35.798 17.7827 37.0586 19.1387 39.0143 19.1387C40.9701 19.1387 42.194 17.7827 42.194 15.6703V7.97461H45.0039V15.6703C45.0039 19.3737 42.6394 21.7382 38.9972 21.7382Z" fill="white"/>
<path d="M47.4174 7.97462H50.2274V14.0621L56.1583 7.97462H59.59L53.0374 14.4293L59.8984 21.5424H56.1387L50.2274 15.1832V21.5424H47.4174V7.97217V7.97462Z" fill="white"/>
<path d="M78.6774 7.97461H81.3527L88.0987 16.7571V7.97461H90.7349V21.5448H88.2529L81.3332 12.4735V21.5448H78.6774V7.97461Z" fill="white"/>
<path d="M106.65 14.7598C106.65 15.7291 106.462 16.6445 106.087 17.5037C105.713 18.3628 105.206 19.107 104.565 19.7336C103.926 20.3602 103.164 20.8546 102.288 21.2169C101.409 21.5792 100.467 21.7603 99.4586 21.7603C98.4501 21.7603 97.5273 21.5792 96.6486 21.2169C95.7699 20.8546 95.0111 20.3602 94.3698 19.7336C93.7309 19.107 93.2218 18.3628 92.8473 17.5037C92.4728 16.6445 92.2843 15.7291 92.2843 14.7598C92.2843 13.7905 92.4703 12.8775 92.8473 12.0159C93.2218 11.1567 93.7285 10.4126 94.3698 9.786C95.0111 9.15938 95.7674 8.66494 96.6486 8.30267C97.5273 7.94041 98.4648 7.75928 99.4586 7.75928C100.452 7.75928 101.409 7.94041 102.288 8.30267C103.167 8.66494 103.926 9.15938 104.565 9.786C105.203 10.4126 105.713 11.1567 106.087 12.0159C106.462 12.875 106.65 13.7905 106.65 14.7598ZM103.762 14.7598C103.762 14.1258 103.652 13.5408 103.431 13.0048C103.211 12.4687 102.91 12.0036 102.531 11.6096C102.149 11.2155 101.693 10.9046 101.165 10.6794C100.634 10.4542 100.066 10.3392 99.4586 10.3392C98.8516 10.3392 98.2861 10.4518 97.7623 10.6794C97.2385 10.9046 96.7857 11.2155 96.4063 11.6096C96.0244 12.0036 95.7234 12.4687 95.5055 13.0048C95.2852 13.5408 95.1751 14.1258 95.1751 14.7598C95.1751 15.3937 95.2852 15.9616 95.5055 16.505C95.7258 17.0484 96.0244 17.5159 96.4063 17.91C96.7881 18.3041 97.241 18.615 97.7623 18.8402C98.2861 19.0653 98.8516 19.1804 99.4586 19.1804C100.066 19.1804 100.634 19.0678 101.165 18.8402C101.693 18.615 102.151 18.3041 102.531 17.91C102.912 17.5159 103.211 17.0484 103.431 16.505C103.652 15.9616 103.762 15.3815 103.762 14.7598Z" fill="white"/>
<path d="M112.894 21.5448H109.947L106.941 7.97461H109.83L111.67 17.183L114.326 7.97461H116.962L119.598 17.1438L121.439 7.97461H124.23L121.226 21.5448H118.279L115.584 12.0648L112.889 21.5448H112.894Z" fill="white"/>
<path d="M65.2883 17.1832L63.3105 13.3843V17.5919H62.2164V11.874H63.7364L65.3054 14.9459L66.8744 11.874H68.3944V17.5919H67.2758V13.3916L65.2907 17.1832H65.2883Z" fill="white"/>
<path d="M69.4861 17.5919V11.874H73.8823V12.9021H70.6708V14.2092H72.7857V15.2054H70.6708V16.5614H73.9141V17.5919H69.4861Z" fill="white"/>
</svg>
