<svg width="488" height="364" viewBox="0 0 488 364" fill="none" xmlns="http://www.w3.org/2000/svg">
<g filter="url(#filter0_d_74_764)">
<rect x="60.4706" y="43.0353" width="359.153" height="271.059" rx="8" fill="white" shape-rendering="crispEdges"/>
<rect x="59.9706" y="42.5353" width="360.153" height="272.059" rx="8.5" stroke="#E7E9E8" shape-rendering="crispEdges"/>
<rect x="84.4706" y="67.0353" width="64" height="64" rx="32" fill="#CCCFCE" fill-opacity="0.24"/>
<path d="M127.771 85.0353H105.171C103.671 85.0353 102.471 86.2353 102.471 87.7353V110.435C102.471 111.835 103.671 113.035 105.171 113.035H127.871C129.371 113.035 130.571 111.835 130.571 110.335V87.7353C130.471 86.2353 129.271 85.0353 127.771 85.0353ZM105.171 87.0353H127.871C128.171 87.0353 128.471 87.3353 128.471 87.7353V93.6353L126.371 91.5353C125.371 90.5353 123.671 90.5353 122.571 91.5353L117.471 96.6353L115.371 94.5353C114.371 93.5353 112.671 93.5353 111.571 94.5353L104.471 101.635V87.7353C104.471 87.3353 104.771 87.0353 105.171 87.0353ZM127.771 111.035H105.171C104.771 111.035 104.471 110.735 104.471 110.335V104.435L112.971 95.9353C113.271 95.6353 113.671 95.6353 113.871 95.9353L122.671 104.735C122.871 104.935 123.171 105.035 123.371 105.035C123.571 105.035 123.871 104.935 124.071 104.735C124.471 104.335 124.471 103.735 124.071 103.335L118.871 98.0353L123.971 92.9353C124.271 92.6353 124.671 92.6353 124.871 92.9353L128.171 96.2353C128.271 96.3353 128.271 96.3353 128.371 96.3353V110.335C128.471 110.735 128.171 111.035 127.771 111.035Z" fill="#2B3834"/>
<path d="M109.371 92.0353H109.471C110.071 92.0353 110.471 91.6353 110.471 91.0353C110.471 90.4353 109.971 90.0353 109.471 90.0353H109.371C108.771 90.0353 108.371 90.4353 108.371 91.0353C108.371 91.6353 108.771 92.0353 109.371 92.0353Z" fill="#2B3834"/>
<path d="M165.575 78.0353V66.8353H167.543L172.679 75.0753V66.8353H174.471V78.0353H172.503L167.351 69.8113V78.0353H165.575ZM179.276 69.8433C180.321 69.8433 181.159 70.1259 181.788 70.6913C182.417 71.2459 182.732 72.0193 182.732 73.0113V78.0353H181.02V76.8033C180.785 77.2086 180.439 77.5393 179.98 77.7953C179.521 78.0406 179.025 78.1633 178.492 78.1633C177.692 78.1633 177.041 77.9393 176.54 77.4913C176.039 77.0433 175.788 76.4726 175.788 75.7793C175.788 74.2433 177.025 73.3473 179.5 73.0913L181.02 72.9313V72.8193C181.02 72.3286 180.86 71.9393 180.54 71.6513C180.231 71.3633 179.809 71.2193 179.276 71.2193C178.785 71.2193 178.38 71.3579 178.06 71.6353C177.74 71.9019 177.553 72.2753 177.5 72.7553L175.932 72.4673C176.06 71.6779 176.433 71.0433 177.052 70.5633C177.671 70.0833 178.412 69.8433 179.276 69.8433ZM178.844 76.8193C179.516 76.8193 180.044 76.6113 180.428 76.1953C180.812 75.7793 181.009 75.2353 181.02 74.5633V74.2273L179.484 74.4033C178.161 74.5526 177.5 74.9953 177.5 75.7313C177.5 76.0513 177.623 76.3126 177.868 76.5153C178.113 76.7179 178.439 76.8193 178.844 76.8193ZM184.382 78.0353V69.9713H186.126V71.3313C186.617 70.3393 187.406 69.8433 188.494 69.8433C189.145 69.8433 189.689 69.9819 190.126 70.2593C190.574 70.5366 190.883 70.9313 191.054 71.4433C191.278 70.9739 191.625 70.5899 192.094 70.2913C192.563 69.9926 193.102 69.8433 193.71 69.8433C194.574 69.8433 195.262 70.0993 195.774 70.6113C196.297 71.1126 196.558 71.7739 196.558 72.5953V78.0353H194.814V73.0273C194.814 72.5153 194.67 72.1099 194.382 71.8113C194.105 71.5019 193.715 71.3473 193.214 71.3473C192.627 71.3473 192.163 71.5873 191.822 72.0673C191.491 72.5366 191.326 73.1659 191.326 73.9553V78.0353H189.598V73.0273C189.598 72.5153 189.459 72.1099 189.182 71.8113C188.905 71.5019 188.515 71.3473 188.014 71.3473C187.427 71.3473 186.963 71.5873 186.622 72.0673C186.291 72.5473 186.126 73.1766 186.126 73.9553V78.0353H184.382ZM205.673 73.6993C205.673 73.9873 205.662 74.2273 205.641 74.4193H199.481C199.555 75.1126 199.801 75.6619 200.217 76.0673C200.643 76.4726 201.177 76.6753 201.817 76.6753C202.35 76.6753 202.793 76.5579 203.145 76.3233C203.497 76.0779 203.726 75.7366 203.833 75.2993L205.481 75.7153C205.267 76.4939 204.835 77.0966 204.185 77.5233C203.534 77.9499 202.734 78.1633 201.785 78.1633C200.558 78.1633 199.582 77.7579 198.857 76.9473C198.131 76.1259 197.769 75.1446 197.769 74.0033C197.769 72.8513 198.115 71.8699 198.809 71.0593C199.513 70.2486 200.478 69.8433 201.705 69.8433C202.942 69.8433 203.913 70.2219 204.617 70.9793C205.321 71.7366 205.673 72.6433 205.673 73.6993ZM199.561 73.0913H203.817C203.763 72.5259 203.55 72.0726 203.177 71.7313C202.814 71.3899 202.323 71.2193 201.705 71.2193C201.15 71.2193 200.686 71.3846 200.313 71.7153C199.939 72.0353 199.689 72.4939 199.561 73.0913ZM214.066 78.1633C212.85 78.1633 211.853 77.7739 211.074 76.9953C210.296 76.2059 209.906 75.2086 209.906 74.0033C209.906 72.7979 210.296 71.8059 211.074 71.0273C211.853 70.2379 212.85 69.8433 214.066 69.8433C215.272 69.8433 216.264 70.2379 217.042 71.0273C217.832 71.8059 218.226 72.7979 218.226 74.0033C218.226 75.2086 217.832 76.2059 217.042 76.9953C216.264 77.7739 215.272 78.1633 214.066 78.1633ZM212.322 75.9073C212.77 76.3979 213.352 76.6433 214.066 76.6433C214.781 76.6433 215.357 76.3979 215.794 75.9073C216.242 75.4166 216.466 74.7819 216.466 74.0033C216.466 73.2246 216.242 72.5899 215.794 72.0993C215.357 71.6086 214.781 71.3633 214.066 71.3633C213.352 71.3633 212.77 71.6086 212.322 72.0993C211.885 72.5899 211.666 73.2246 211.666 74.0033C211.666 74.7819 211.885 75.4166 212.322 75.9073ZM219.987 78.0353V71.4593H218.659V69.9713H219.987V69.2833C219.987 68.3979 220.233 67.7046 220.723 67.2033C221.214 66.7019 221.854 66.4513 222.643 66.4513C223.038 66.4513 223.422 66.5099 223.795 66.6273L223.699 68.0993C223.422 67.9926 223.145 67.9393 222.867 67.9393C222.526 67.9393 222.249 68.0619 222.035 68.3073C221.833 68.5419 221.731 68.8566 221.731 69.2513V69.9713H223.699V71.4593H221.731V78.0353H219.987ZM232.471 78.1633C231.938 78.1633 231.447 78.0566 230.999 77.8433C230.551 77.6299 230.231 77.3526 230.039 77.0113V78.0353H228.295V66.7073H230.039V70.9793C230.284 70.6379 230.626 70.3659 231.063 70.1633C231.511 69.9499 231.991 69.8433 232.503 69.8433C233.698 69.8433 234.631 70.2273 235.303 70.9953C235.986 71.7633 236.327 72.7659 236.327 74.0033C236.327 75.2513 235.986 76.2593 235.303 77.0273C234.62 77.7846 233.676 78.1633 232.471 78.1633ZM230.551 75.9233C230.978 76.4033 231.543 76.6433 232.247 76.6433C232.951 76.6433 233.516 76.4033 233.943 75.9233C234.37 75.4326 234.583 74.7926 234.583 74.0033C234.583 73.2033 234.37 72.5633 233.943 72.0833C233.516 71.6033 232.951 71.3633 232.247 71.3633C231.543 71.3633 230.978 71.6033 230.551 72.0833C230.124 72.5633 229.911 73.2033 229.911 74.0033C229.911 74.7926 230.124 75.4326 230.551 75.9233ZM244.847 69.9713V78.0353H243.103V76.6913C242.826 77.1393 242.458 77.4966 241.999 77.7633C241.541 78.0299 241.029 78.1633 240.463 78.1633C239.589 78.1633 238.879 77.9019 238.335 77.3793C237.802 76.8459 237.535 76.1473 237.535 75.2833V69.9713H239.279V74.8833C239.279 75.3953 239.429 75.8113 239.727 76.1313C240.026 76.4406 240.431 76.5953 240.943 76.5953C241.615 76.5953 242.143 76.3233 242.527 75.7793C242.911 75.2353 243.103 74.4779 243.103 73.5073V69.9713H244.847ZM249.294 78.1633C248.388 78.1633 247.636 77.9339 247.038 77.4753C246.452 77.0059 246.052 76.4459 245.838 75.7953L247.278 75.1873C247.609 76.2433 248.281 76.7713 249.294 76.7713C249.7 76.7713 250.03 76.6699 250.286 76.4673C250.553 76.2646 250.686 76.0139 250.686 75.7153C250.686 75.3953 250.532 75.1446 250.222 74.9633C249.913 74.7819 249.534 74.6433 249.086 74.5473C248.649 74.4406 248.212 74.3179 247.774 74.1793C247.337 74.0299 246.964 73.7793 246.654 73.4273C246.345 73.0753 246.19 72.6166 246.19 72.0513C246.19 71.4113 246.446 70.8833 246.958 70.4673C247.481 70.0513 248.174 69.8433 249.038 69.8433C249.796 69.8433 250.468 70.0299 251.054 70.4033C251.641 70.7659 252.02 71.2406 252.19 71.8273L250.75 72.4353C250.654 72.0513 250.441 71.7473 250.11 71.5233C249.79 71.2993 249.438 71.1873 249.054 71.1873C248.67 71.1873 248.366 71.2619 248.142 71.4113C247.918 71.5499 247.806 71.7526 247.806 72.0193C247.806 72.2966 247.961 72.5153 248.27 72.6753C248.58 72.8246 248.953 72.9473 249.39 73.0433C249.838 73.1393 250.286 73.2619 250.734 73.4113C251.182 73.5606 251.561 73.8273 251.87 74.2113C252.18 74.5953 252.334 75.0913 252.334 75.6993C252.334 76.4033 252.052 76.9899 251.486 77.4593C250.921 77.9286 250.19 78.1633 249.294 78.1633ZM254.365 68.6273C254.045 68.6273 253.778 68.5206 253.565 68.3073C253.351 68.0833 253.245 67.8166 253.245 67.5073C253.245 67.1873 253.351 66.9206 253.565 66.7073C253.778 66.4833 254.045 66.3713 254.365 66.3713C254.695 66.3713 254.967 66.4833 255.181 66.7073C255.405 66.9206 255.517 67.1873 255.517 67.5073C255.517 67.8166 255.405 68.0833 255.181 68.3073C254.967 68.5206 254.695 68.6273 254.365 68.6273ZM253.501 78.0353V69.9713H255.245V78.0353H253.501ZM256.913 78.0353V69.9713H258.657V71.3153C259.276 70.3339 260.161 69.8433 261.313 69.8433C262.177 69.8433 262.876 70.1099 263.409 70.6433C263.953 71.1659 264.225 71.8593 264.225 72.7233V78.0353H262.481V73.1233C262.481 72.6113 262.332 72.2006 262.033 71.8913C261.735 71.5713 261.335 71.4113 260.833 71.4113C260.151 71.4113 259.617 71.6833 259.233 72.2273C258.849 72.7713 258.657 73.5286 258.657 74.4993V78.0353H256.913ZM273.345 73.6993C273.345 73.9873 273.334 74.2273 273.313 74.4193H267.153C267.227 75.1126 267.473 75.6619 267.889 76.0673C268.315 76.4726 268.849 76.6753 269.489 76.6753C270.022 76.6753 270.465 76.5579 270.817 76.3233C271.169 76.0779 271.398 75.7366 271.505 75.2993L273.153 75.7153C272.939 76.4939 272.507 77.0966 271.857 77.5233C271.206 77.9499 270.406 78.1633 269.457 78.1633C268.23 78.1633 267.254 77.7579 266.529 76.9473C265.803 76.1259 265.441 75.1446 265.441 74.0033C265.441 72.8513 265.787 71.8699 266.481 71.0593C267.185 70.2486 268.15 69.8433 269.377 69.8433C270.614 69.8433 271.585 70.2219 272.289 70.9793C272.993 71.7366 273.345 72.6433 273.345 73.6993ZM267.233 73.0913H271.489C271.435 72.5259 271.222 72.0726 270.849 71.7313C270.486 71.3899 269.995 71.2193 269.377 71.2193C268.822 71.2193 268.358 71.3846 267.985 71.7153C267.611 72.0353 267.361 72.4939 267.233 73.0913ZM277.272 78.1633C276.366 78.1633 275.614 77.9339 275.016 77.4753C274.43 77.0059 274.03 76.4459 273.816 75.7953L275.256 75.1873C275.587 76.2433 276.259 76.7713 277.272 76.7713C277.678 76.7713 278.008 76.6699 278.264 76.4673C278.531 76.2646 278.664 76.0139 278.664 75.7153C278.664 75.3953 278.51 75.1446 278.2 74.9633C277.891 74.7819 277.512 74.6433 277.064 74.5473C276.627 74.4406 276.19 74.3179 275.752 74.1793C275.315 74.0299 274.942 73.7793 274.632 73.4273C274.323 73.0753 274.168 72.6166 274.168 72.0513C274.168 71.4113 274.424 70.8833 274.936 70.4673C275.459 70.0513 276.152 69.8433 277.016 69.8433C277.774 69.8433 278.446 70.0299 279.032 70.4033C279.619 70.7659 279.998 71.2406 280.168 71.8273L278.728 72.4353C278.632 72.0513 278.419 71.7473 278.088 71.5233C277.768 71.2993 277.416 71.1873 277.032 71.1873C276.648 71.1873 276.344 71.2619 276.12 71.4113C275.896 71.5499 275.784 71.7526 275.784 72.0193C275.784 72.2966 275.939 72.5153 276.248 72.6753C276.558 72.8246 276.931 72.9473 277.368 73.0433C277.816 73.1393 278.264 73.2619 278.712 73.4113C279.16 73.5606 279.539 73.8273 279.848 74.2113C280.158 74.5953 280.312 75.0913 280.312 75.6993C280.312 76.4033 280.03 76.9899 279.464 77.4593C278.899 77.9286 278.168 78.1633 277.272 78.1633ZM284.263 78.1633C283.356 78.1633 282.604 77.9339 282.007 77.4753C281.42 77.0059 281.02 76.4459 280.807 75.7953L282.247 75.1873C282.578 76.2433 283.25 76.7713 284.263 76.7713C284.668 76.7713 284.999 76.6699 285.255 76.4673C285.522 76.2646 285.655 76.0139 285.655 75.7153C285.655 75.3953 285.5 75.1446 285.191 74.9633C284.882 74.7819 284.503 74.6433 284.055 74.5473C283.618 74.4406 283.18 74.3179 282.743 74.1793C282.306 74.0299 281.932 73.7793 281.623 73.4273C281.314 73.0753 281.159 72.6166 281.159 72.0513C281.159 71.4113 281.415 70.8833 281.927 70.4673C282.45 70.0513 283.143 69.8433 284.007 69.8433C284.764 69.8433 285.436 70.0299 286.023 70.4033C286.61 70.7659 286.988 71.2406 287.159 71.8273L285.719 72.4353C285.623 72.0513 285.41 71.7473 285.079 71.5233C284.759 71.2993 284.407 71.1873 284.023 71.1873C283.639 71.1873 283.335 71.2619 283.111 71.4113C282.887 71.5499 282.775 71.7526 282.775 72.0193C282.775 72.2966 282.93 72.5153 283.239 72.6753C283.548 72.8246 283.922 72.9473 284.359 73.0433C284.807 73.1393 285.255 73.2619 285.703 73.4113C286.151 73.5606 286.53 73.8273 286.839 74.2113C287.148 74.5953 287.303 75.0913 287.303 75.6993C287.303 76.4033 287.02 76.9899 286.455 77.4593C285.89 77.9286 285.159 78.1633 284.263 78.1633Z" fill="#2B3834"/>
<path d="M167.845 104.035V95.3693H164.723V94.2353H172.227V95.3693H169.119V104.035H167.845ZM178.183 100.185C178.183 100.381 178.174 100.563 178.155 100.731H172.583C172.621 101.441 172.845 102.015 173.255 102.453C173.675 102.883 174.203 103.097 174.837 103.097C175.379 103.097 175.827 102.976 176.181 102.733C176.536 102.491 176.765 102.15 176.867 101.711L177.987 101.977C177.81 102.659 177.441 103.191 176.881 103.573C176.331 103.956 175.649 104.147 174.837 104.147C173.801 104.147 172.966 103.797 172.331 103.097C171.706 102.397 171.393 101.534 171.393 100.507C171.393 99.4713 171.701 98.6079 172.317 97.9173C172.943 97.2173 173.773 96.8673 174.809 96.8673C175.827 96.8673 176.643 97.1893 177.259 97.8333C177.875 98.4679 178.183 99.2519 178.183 100.185ZM172.653 99.7373H176.923C176.867 99.1773 176.653 98.7246 176.279 98.3793C175.906 98.0339 175.416 97.8613 174.809 97.8613C174.259 97.8613 173.792 98.0293 173.409 98.3653C173.027 98.6919 172.775 99.1493 172.653 99.7373ZM179.365 104.035V94.1233H180.555V104.035H179.365ZM182.133 104.035V94.1233H183.323V104.035H182.133ZM192.575 96.9793H193.793L190.097 106.583H188.879L189.901 103.937L187.143 96.9793H188.431L190.503 102.383L192.575 96.9793ZM200.112 103.125C199.44 103.807 198.581 104.147 197.536 104.147C196.491 104.147 195.632 103.807 194.96 103.125C194.288 102.435 193.952 101.562 193.952 100.507C193.952 99.4526 194.288 98.5846 194.96 97.9033C195.632 97.2126 196.491 96.8673 197.536 96.8673C198.581 96.8673 199.44 97.2126 200.112 97.9033C200.793 98.5846 201.134 99.4526 201.134 100.507C201.134 101.562 200.793 102.435 200.112 103.125ZM195.828 102.369C196.267 102.845 196.836 103.083 197.536 103.083C198.236 103.083 198.805 102.845 199.244 102.369C199.683 101.884 199.902 101.263 199.902 100.507C199.902 99.7513 199.683 99.1353 199.244 98.6593C198.805 98.1739 198.236 97.9313 197.536 97.9313C196.836 97.9313 196.267 98.1739 195.828 98.6593C195.389 99.1353 195.17 99.7513 195.17 100.507C195.17 101.263 195.389 101.884 195.828 102.369ZM208.439 96.9793V104.035H207.249V102.705C206.997 103.144 206.661 103.494 206.241 103.755C205.821 104.017 205.35 104.147 204.827 104.147C204.09 104.147 203.483 103.919 203.007 103.461C202.54 103.004 202.307 102.402 202.307 101.655V96.9793H203.497V101.431C203.497 101.917 203.642 102.313 203.931 102.621C204.22 102.92 204.608 103.069 205.093 103.069C205.756 103.069 206.278 102.803 206.661 102.271C207.053 101.73 207.249 100.997 207.249 100.073V96.9793H208.439ZM214.153 98.1413C213.892 98.0293 213.589 97.9733 213.243 97.9733C212.646 97.9733 212.156 98.2626 211.773 98.8413C211.4 99.4106 211.213 100.246 211.213 101.347V104.035H210.023V96.9793H211.213V98.4073C211.419 97.9593 211.727 97.5906 212.137 97.3013C212.548 97.0119 212.973 96.8673 213.411 96.8673C213.719 96.8673 213.99 96.9093 214.223 96.9933L214.153 98.1413ZM218.06 106.583V96.9793H219.25V98.0013C219.446 97.6746 219.754 97.4039 220.174 97.1893C220.603 96.9746 221.07 96.8673 221.574 96.8673C222.628 96.8673 223.454 97.2079 224.052 97.8893C224.649 98.5613 224.948 99.4339 224.948 100.507C224.948 101.571 224.644 102.444 224.038 103.125C223.431 103.807 222.6 104.147 221.546 104.147C221.098 104.147 220.664 104.049 220.244 103.853C219.824 103.648 219.492 103.382 219.25 103.055V106.583H218.06ZM221.434 103.083C222.134 103.083 222.694 102.85 223.114 102.383C223.534 101.907 223.744 101.282 223.744 100.507C223.744 99.7326 223.534 99.1119 223.114 98.6453C222.694 98.1693 222.134 97.9313 221.434 97.9313C220.743 97.9313 220.188 98.1693 219.768 98.6453C219.357 99.1119 219.152 99.7326 219.152 100.507C219.152 101.282 219.357 101.907 219.768 102.383C220.188 102.85 220.743 103.083 221.434 103.083ZM231.872 103.125C231.2 103.807 230.341 104.147 229.296 104.147C228.25 104.147 227.392 103.807 226.72 103.125C226.048 102.435 225.712 101.562 225.712 100.507C225.712 99.4526 226.048 98.5846 226.72 97.9033C227.392 97.2126 228.25 96.8673 229.296 96.8673C230.341 96.8673 231.2 97.2126 231.872 97.9033C232.553 98.5846 232.894 99.4526 232.894 100.507C232.894 101.562 232.553 102.435 231.872 103.125ZM227.588 102.369C228.026 102.845 228.596 103.083 229.296 103.083C229.996 103.083 230.565 102.845 231.004 102.369C231.442 101.884 231.662 101.263 231.662 100.507C231.662 99.7513 231.442 99.1353 231.004 98.6593C230.565 98.1739 229.996 97.9313 229.296 97.9313C228.596 97.9313 228.026 98.1739 227.588 98.6593C227.149 99.1353 226.93 99.7513 226.93 100.507C226.93 101.263 227.149 101.884 227.588 102.369ZM237.723 103.979C237.415 104.091 237.046 104.147 236.617 104.147C235.982 104.147 235.474 103.965 235.091 103.601C234.718 103.228 234.531 102.668 234.531 101.921V98.0293H233.215V96.9793H234.531V94.8373H235.721V96.9793H237.611V98.0293H235.721V101.963C235.721 102.327 235.814 102.603 236.001 102.789C236.188 102.976 236.44 103.069 236.757 103.069C237.102 103.069 237.396 103.009 237.639 102.887L237.723 103.979ZM244.968 100.185C244.968 100.381 244.959 100.563 244.94 100.731H239.368C239.405 101.441 239.629 102.015 240.04 102.453C240.46 102.883 240.987 103.097 241.622 103.097C242.163 103.097 242.611 102.976 242.966 102.733C243.321 102.491 243.549 102.15 243.652 101.711L244.772 101.977C244.595 102.659 244.226 103.191 243.666 103.573C243.115 103.956 242.434 104.147 241.622 104.147C240.586 104.147 239.751 103.797 239.116 103.097C238.491 102.397 238.178 101.534 238.178 100.507C238.178 99.4713 238.486 98.6079 239.102 97.9173C239.727 97.2173 240.558 96.8673 241.594 96.8673C242.611 96.8673 243.428 97.1893 244.044 97.8333C244.66 98.4679 244.968 99.2519 244.968 100.185ZM239.438 99.7373H243.708C243.652 99.1773 243.437 98.7246 243.064 98.3793C242.691 98.0339 242.201 97.8613 241.594 97.8613C241.043 97.8613 240.577 98.0293 240.194 98.3653C239.811 98.6919 239.559 99.1493 239.438 99.7373ZM246.15 104.035V96.9793H247.34V98.3093C247.592 97.8706 247.928 97.5206 248.348 97.2593C248.768 96.9979 249.239 96.8673 249.762 96.8673C250.499 96.8673 251.101 97.0959 251.568 97.5533C252.044 98.0106 252.282 98.6126 252.282 99.3593V104.035H251.092V99.5833C251.092 99.0979 250.947 98.7059 250.658 98.4073C250.369 98.0993 249.981 97.9453 249.496 97.9453C248.833 97.9453 248.306 98.2159 247.914 98.7573C247.531 99.2893 247.34 100.017 247.34 100.941V104.035H246.15ZM257.359 103.979C257.051 104.091 256.682 104.147 256.253 104.147C255.618 104.147 255.109 103.965 254.727 103.601C254.353 103.228 254.167 102.668 254.167 101.921V98.0293H252.851V96.9793H254.167V94.8373H255.357V96.9793H257.247V98.0293H255.357V101.963C255.357 102.327 255.45 102.603 255.637 102.789C255.823 102.976 256.075 103.069 256.393 103.069C256.738 103.069 257.032 103.009 257.275 102.887L257.359 103.979ZM258.313 94.1233H259.685V95.6353H258.313V94.1233ZM258.397 104.035V96.9793H259.587V104.035H258.397ZM263.796 96.8673C264.664 96.8673 265.364 97.1053 265.896 97.5813C266.428 98.0573 266.694 98.7013 266.694 99.5133V104.035H265.518V102.831C265.313 103.233 264.996 103.555 264.566 103.797C264.146 104.031 263.68 104.147 263.166 104.147C262.466 104.147 261.892 103.956 261.444 103.573C261.006 103.181 260.786 102.677 260.786 102.061C260.786 100.736 261.906 99.9613 264.146 99.7373L265.518 99.5833V99.4433C265.518 98.9579 265.36 98.5753 265.042 98.2953C264.734 98.0059 264.319 97.8613 263.796 97.8613C263.311 97.8613 262.91 97.9966 262.592 98.2673C262.275 98.5379 262.093 98.9113 262.046 99.3873L260.94 99.1773C261.043 98.4773 261.356 97.9173 261.878 97.4973C262.41 97.0773 263.05 96.8673 263.796 96.8673ZM263.348 103.167C264.03 103.167 264.562 102.957 264.944 102.537C265.327 102.117 265.518 101.553 265.518 100.843V100.507L264.146 100.661C262.7 100.82 261.976 101.282 261.976 102.047C261.976 102.374 262.102 102.645 262.354 102.859C262.616 103.065 262.947 103.167 263.348 103.167ZM268.279 104.035V94.1233H269.469V104.035H268.279ZM277.167 104.147C276.122 104.147 275.277 103.816 274.633 103.153C273.989 102.481 273.667 101.599 273.667 100.507C273.667 99.4153 273.989 98.5379 274.633 97.8753C275.277 97.2033 276.122 96.8673 277.167 96.8673C277.989 96.8673 278.675 97.0773 279.225 97.4973C279.785 97.9079 280.131 98.4633 280.261 99.1633L279.085 99.4013C279.011 98.9719 278.801 98.6219 278.455 98.3513C278.11 98.0713 277.69 97.9313 277.195 97.9313C276.505 97.9313 275.949 98.1693 275.529 98.6453C275.119 99.1119 274.913 99.7326 274.913 100.507C274.913 101.282 275.119 101.907 275.529 102.383C275.949 102.85 276.505 103.083 277.195 103.083C277.699 103.083 278.119 102.953 278.455 102.691C278.801 102.43 279.02 102.066 279.113 101.599L280.275 101.837C280.126 102.565 279.771 103.135 279.211 103.545C278.661 103.947 277.979 104.147 277.167 104.147ZM281.407 104.035V94.1233H282.597V104.035H281.407ZM284.09 94.1233H285.462V95.6353H284.09V94.1233ZM284.174 104.035V96.9793H285.364V104.035H284.174ZM293.325 100.185C293.325 100.381 293.316 100.563 293.297 100.731H287.725C287.763 101.441 287.987 102.015 288.397 102.453C288.817 102.883 289.345 103.097 289.979 103.097C290.521 103.097 290.969 102.976 291.323 102.733C291.678 102.491 291.907 102.15 292.009 101.711L293.129 101.977C292.952 102.659 292.583 103.191 292.023 103.573C291.473 103.956 290.791 104.147 289.979 104.147C288.943 104.147 288.108 103.797 287.473 103.097C286.848 102.397 286.535 101.534 286.535 100.507C286.535 99.4713 286.843 98.6079 287.459 97.9173C288.085 97.2173 288.915 96.8673 289.951 96.8673C290.969 96.8673 291.785 97.1893 292.401 97.8333C293.017 98.4679 293.325 99.2519 293.325 100.185ZM287.795 99.7373H292.065C292.009 99.1773 291.795 98.7246 291.421 98.3793C291.048 98.0339 290.558 97.8613 289.951 97.8613C289.401 97.8613 288.934 98.0293 288.551 98.3653C288.169 98.6919 287.917 99.1493 287.795 99.7373ZM294.507 104.035V96.9793H295.697V98.3093C295.949 97.8706 296.285 97.5206 296.705 97.2593C297.125 96.9979 297.597 96.8673 298.119 96.8673C298.857 96.8673 299.459 97.0959 299.925 97.5533C300.401 98.0106 300.639 98.6126 300.639 99.3593V104.035H299.449V99.5833C299.449 99.0979 299.305 98.7059 299.015 98.4073C298.726 98.0993 298.339 97.9453 297.853 97.9453C297.191 97.9453 296.663 98.2159 296.271 98.7573C295.889 99.2893 295.697 100.017 295.697 100.941V104.035H294.507ZM305.716 103.979C305.408 104.091 305.039 104.147 304.61 104.147C303.975 104.147 303.467 103.965 303.084 103.601C302.711 103.228 302.524 102.668 302.524 101.921V98.0293H301.208V96.9793H302.524V94.8373H303.714V96.9793H305.604V98.0293H303.714V101.963C303.714 102.327 303.807 102.603 303.994 102.789C304.181 102.976 304.433 103.069 304.75 103.069C305.095 103.069 305.389 103.009 305.632 102.887L305.716 103.979ZM309.216 104.147C308.432 104.147 307.788 103.947 307.284 103.545C306.79 103.144 306.454 102.659 306.276 102.089L307.298 101.641C307.616 102.64 308.255 103.139 309.216 103.139C309.636 103.139 309.977 103.037 310.238 102.831C310.509 102.617 310.644 102.36 310.644 102.061C310.644 101.735 310.504 101.478 310.224 101.291C309.944 101.105 309.604 100.965 309.202 100.871C308.81 100.778 308.414 100.675 308.012 100.563C307.62 100.442 307.284 100.232 307.004 99.9333C306.724 99.6346 306.584 99.2379 306.584 98.7433C306.584 98.1833 306.808 97.7306 307.256 97.3853C307.704 97.0399 308.306 96.8673 309.062 96.8673C309.688 96.8673 310.243 97.0306 310.728 97.3573C311.214 97.6746 311.531 98.0899 311.68 98.6033L310.686 99.0373C310.593 98.6826 310.388 98.3979 310.07 98.1833C309.762 97.9593 309.417 97.8473 309.034 97.8473C308.633 97.8473 308.316 97.9266 308.082 98.0853C307.849 98.2346 307.732 98.4493 307.732 98.7293C307.732 98.9626 307.83 99.1539 308.026 99.3033C308.232 99.4526 308.484 99.5599 308.782 99.6253C309.09 99.6813 309.422 99.7653 309.776 99.8773C310.131 99.9799 310.458 100.097 310.756 100.227C311.055 100.358 311.302 100.582 311.498 100.899C311.704 101.207 311.806 101.59 311.806 102.047C311.806 102.663 311.568 103.167 311.092 103.559C310.616 103.951 309.991 104.147 309.216 104.147ZM318.626 96.8673C319.494 96.8673 320.194 97.1053 320.726 97.5813C321.258 98.0573 321.524 98.7013 321.524 99.5133V104.035H320.348V102.831C320.143 103.233 319.825 103.555 319.396 103.797C318.976 104.031 318.509 104.147 317.996 104.147C317.296 104.147 316.722 103.956 316.274 103.573C315.835 103.181 315.616 102.677 315.616 102.061C315.616 100.736 316.736 99.9613 318.976 99.7373L320.348 99.5833V99.4433C320.348 98.9579 320.189 98.5753 319.872 98.2953C319.564 98.0059 319.149 97.8613 318.626 97.8613C318.141 97.8613 317.739 97.9966 317.422 98.2673C317.105 98.5379 316.923 98.9113 316.876 99.3873L315.77 99.1773C315.873 98.4773 316.185 97.9173 316.708 97.4973C317.24 97.0773 317.879 96.8673 318.626 96.8673ZM318.178 103.167C318.859 103.167 319.391 102.957 319.774 102.537C320.157 102.117 320.348 101.553 320.348 100.843V100.507L318.976 100.661C317.529 100.82 316.806 101.282 316.806 102.047C316.806 102.374 316.932 102.645 317.184 102.859C317.445 103.065 317.777 103.167 318.178 103.167ZM323.109 104.035V94.1233H324.299V104.035H323.109ZM325.876 104.035V94.1233H327.066V104.035H325.876ZM334.302 96.8673C335.17 96.8673 335.87 97.1053 336.402 97.5813C336.934 98.0573 337.2 98.7013 337.2 99.5133V104.035H336.024V102.831C335.819 103.233 335.502 103.555 335.072 103.797C334.652 104.031 334.186 104.147 333.672 104.147C332.972 104.147 332.398 103.956 331.95 103.573C331.512 103.181 331.292 102.677 331.292 102.061C331.292 100.736 332.412 99.9613 334.652 99.7373L336.024 99.5833V99.4433C336.024 98.9579 335.866 98.5753 335.548 98.2953C335.24 98.0059 334.825 97.8613 334.302 97.8613C333.817 97.8613 333.416 97.9966 333.098 98.2673C332.781 98.5379 332.599 98.9113 332.552 99.3873L331.446 99.1773C331.549 98.4773 331.862 97.9173 332.384 97.4973C332.916 97.0773 333.556 96.8673 334.302 96.8673ZM333.854 103.167C334.536 103.167 335.068 102.957 335.45 102.537C335.833 102.117 336.024 101.553 336.024 100.843V100.507L334.652 100.661C333.206 100.82 332.482 101.282 332.482 102.047C332.482 102.374 332.608 102.645 332.86 102.859C333.122 103.065 333.453 103.167 333.854 103.167ZM342.271 104.147C341.758 104.147 341.286 104.04 340.857 103.825C340.428 103.611 340.134 103.34 339.975 103.013V104.035H338.785V94.1233H339.975V97.9873C340.199 97.6513 340.521 97.3806 340.941 97.1753C341.37 96.9699 341.818 96.8673 342.285 96.8673C343.349 96.8673 344.18 97.2079 344.777 97.8893C345.374 98.5613 345.673 99.4339 345.673 100.507C345.673 101.581 345.37 102.458 344.763 103.139C344.166 103.811 343.335 104.147 342.271 104.147ZM340.493 102.383C340.913 102.85 341.468 103.083 342.159 103.083C342.85 103.083 343.405 102.85 343.825 102.383C344.245 101.907 344.455 101.282 344.455 100.507C344.455 99.7326 344.245 99.1119 343.825 98.6453C343.405 98.1693 342.85 97.9313 342.159 97.9313C341.468 97.9313 340.913 98.1693 340.493 98.6453C340.082 99.1119 339.877 99.7326 339.877 100.507C339.877 101.282 340.082 101.907 340.493 102.383ZM352.597 103.125C351.925 103.807 351.067 104.147 350.021 104.147C348.976 104.147 348.117 103.807 347.445 103.125C346.773 102.435 346.437 101.562 346.437 100.507C346.437 99.4526 346.773 98.5846 347.445 97.9033C348.117 97.2126 348.976 96.8673 350.021 96.8673C351.067 96.8673 351.925 97.2126 352.597 97.9033C353.279 98.5846 353.619 99.4526 353.619 100.507C353.619 101.562 353.279 102.435 352.597 103.125ZM348.313 102.369C348.752 102.845 349.321 103.083 350.021 103.083C350.721 103.083 351.291 102.845 351.729 102.369C352.168 101.884 352.387 101.263 352.387 100.507C352.387 99.7513 352.168 99.1353 351.729 98.6593C351.291 98.1739 350.721 97.9313 350.021 97.9313C349.321 97.9313 348.752 98.1739 348.313 98.6593C347.875 99.1353 347.655 99.7513 347.655 100.507C347.655 101.263 347.875 101.884 348.313 102.369ZM360.924 96.9793V104.035H359.734V102.705C359.482 103.144 359.146 103.494 358.726 103.755C358.306 104.017 357.835 104.147 357.312 104.147C356.575 104.147 355.968 103.919 355.492 103.461C355.025 103.004 354.792 102.402 354.792 101.655V96.9793H355.982V101.431C355.982 101.917 356.127 102.313 356.416 102.621C356.705 102.92 357.093 103.069 357.578 103.069C358.241 103.069 358.763 102.803 359.146 102.271C359.538 101.73 359.734 100.997 359.734 100.073V96.9793H360.924ZM366.26 103.979C365.952 104.091 365.584 104.147 365.154 104.147C364.52 104.147 364.011 103.965 363.628 103.601C363.255 103.228 363.068 102.668 363.068 101.921V98.0293H361.752V96.9793H363.068V94.8373H364.258V96.9793H366.148V98.0293H364.258V101.963C364.258 102.327 364.352 102.603 364.538 102.789C364.725 102.976 364.977 103.069 365.294 103.069C365.64 103.069 365.934 103.009 366.176 102.887L366.26 103.979ZM170.085 120.979H171.303L167.607 130.583H166.389L167.411 127.937L164.653 120.979H165.941L168.013 126.383L170.085 120.979ZM177.622 127.125C176.95 127.807 176.091 128.147 175.046 128.147C174 128.147 173.142 127.807 172.47 127.125C171.798 126.435 171.462 125.562 171.462 124.507C171.462 123.453 171.798 122.585 172.47 121.903C173.142 121.213 174 120.867 175.046 120.867C176.091 120.867 176.95 121.213 177.622 121.903C178.303 122.585 178.644 123.453 178.644 124.507C178.644 125.562 178.303 126.435 177.622 127.125ZM173.338 126.369C173.776 126.845 174.346 127.083 175.046 127.083C175.746 127.083 176.315 126.845 176.754 126.369C177.192 125.884 177.412 125.263 177.412 124.507C177.412 123.751 177.192 123.135 176.754 122.659C176.315 122.174 175.746 121.931 175.046 121.931C174.346 121.931 173.776 122.174 173.338 122.659C172.899 123.135 172.68 123.751 172.68 124.507C172.68 125.263 172.899 125.884 173.338 126.369ZM185.949 120.979V128.035H184.759V126.705C184.507 127.144 184.171 127.494 183.751 127.755C183.331 128.017 182.859 128.147 182.337 128.147C181.599 128.147 180.993 127.919 180.517 127.461C180.05 127.004 179.817 126.402 179.817 125.655V120.979H181.007V125.431C181.007 125.917 181.151 126.313 181.441 126.621C181.73 126.92 182.117 127.069 182.603 127.069C183.265 127.069 183.788 126.803 184.171 126.271C184.563 125.73 184.759 124.997 184.759 124.073V120.979H185.949ZM191.663 122.141C191.402 122.029 191.098 121.973 190.753 121.973C190.156 121.973 189.666 122.263 189.283 122.841C188.91 123.411 188.723 124.246 188.723 125.347V128.035H187.533V120.979H188.723V122.407C188.928 121.959 189.236 121.591 189.647 121.301C190.058 121.012 190.482 120.867 190.921 120.867C191.229 120.867 191.5 120.909 191.733 120.993L191.663 122.141ZM199.055 128.147C198.542 128.147 198.071 128.04 197.641 127.825C197.212 127.611 196.918 127.34 196.759 127.013V128.035H195.569V118.123H196.759V121.987C196.983 121.651 197.305 121.381 197.725 121.175C198.155 120.97 198.603 120.867 199.069 120.867C200.133 120.867 200.964 121.208 201.561 121.889C202.159 122.561 202.457 123.434 202.457 124.507C202.457 125.581 202.154 126.458 201.547 127.139C200.95 127.811 200.119 128.147 199.055 128.147ZM197.277 126.383C197.697 126.85 198.253 127.083 198.943 127.083C199.634 127.083 200.189 126.85 200.609 126.383C201.029 125.907 201.239 125.282 201.239 124.507C201.239 123.733 201.029 123.112 200.609 122.645C200.189 122.169 199.634 121.931 198.943 121.931C198.253 121.931 197.697 122.169 197.277 122.645C196.867 123.112 196.661 123.733 196.661 124.507C196.661 125.282 196.867 125.907 197.277 126.383ZM209.76 120.979V128.035H208.57V126.705C208.318 127.144 207.982 127.494 207.562 127.755C207.142 128.017 206.67 128.147 206.148 128.147C205.41 128.147 204.804 127.919 204.328 127.461C203.861 127.004 203.628 126.402 203.628 125.655V120.979H204.818V125.431C204.818 125.917 204.962 126.313 205.252 126.621C205.541 126.92 205.928 127.069 206.414 127.069C207.076 127.069 207.599 126.803 207.982 126.271C208.374 125.73 208.57 124.997 208.57 124.073V120.979H209.76ZM213.71 128.147C212.926 128.147 212.282 127.947 211.778 127.545C211.283 127.144 210.947 126.659 210.77 126.089L211.792 125.641C212.109 126.64 212.749 127.139 213.71 127.139C214.13 127.139 214.471 127.037 214.732 126.831C215.003 126.617 215.138 126.36 215.138 126.061C215.138 125.735 214.998 125.478 214.718 125.291C214.438 125.105 214.097 124.965 213.696 124.871C213.304 124.778 212.907 124.675 212.506 124.563C212.114 124.442 211.778 124.232 211.498 123.933C211.218 123.635 211.078 123.238 211.078 122.743C211.078 122.183 211.302 121.731 211.75 121.385C212.198 121.04 212.8 120.867 213.556 120.867C214.181 120.867 214.737 121.031 215.222 121.357C215.707 121.675 216.025 122.09 216.174 122.603L215.18 123.037C215.087 122.683 214.881 122.398 214.564 122.183C214.256 121.959 213.911 121.847 213.528 121.847C213.127 121.847 212.809 121.927 212.576 122.085C212.343 122.235 212.226 122.449 212.226 122.729C212.226 122.963 212.324 123.154 212.52 123.303C212.725 123.453 212.977 123.56 213.276 123.625C213.584 123.681 213.915 123.765 214.27 123.877C214.625 123.98 214.951 124.097 215.25 124.227C215.549 124.358 215.796 124.582 215.992 124.899C216.197 125.207 216.3 125.59 216.3 126.047C216.3 126.663 216.062 127.167 215.586 127.559C215.11 127.951 214.485 128.147 213.71 128.147ZM217.377 118.123H218.749V119.635H217.377V118.123ZM217.461 128.035V120.979H218.651V128.035H217.461ZM220.228 128.035V120.979H221.418V122.309C221.67 121.871 222.006 121.521 222.426 121.259C222.846 120.998 223.317 120.867 223.84 120.867C224.577 120.867 225.179 121.096 225.646 121.553C226.122 122.011 226.36 122.613 226.36 123.359V128.035H225.17V123.583C225.17 123.098 225.025 122.706 224.736 122.407C224.447 122.099 224.059 121.945 223.574 121.945C222.911 121.945 222.384 122.216 221.992 122.757C221.609 123.289 221.418 124.017 221.418 124.941V128.035H220.228ZM234.328 124.185C234.328 124.381 234.319 124.563 234.3 124.731H228.728C228.766 125.441 228.99 126.015 229.4 126.453C229.82 126.883 230.348 127.097 230.982 127.097C231.524 127.097 231.972 126.976 232.326 126.733C232.681 126.491 232.91 126.15 233.012 125.711L234.132 125.977C233.955 126.659 233.586 127.191 233.026 127.573C232.476 127.956 231.794 128.147 230.982 128.147C229.946 128.147 229.111 127.797 228.476 127.097C227.851 126.397 227.538 125.534 227.538 124.507C227.538 123.471 227.846 122.608 228.462 121.917C229.088 121.217 229.918 120.867 230.954 120.867C231.972 120.867 232.788 121.189 233.404 121.833C234.02 122.468 234.328 123.252 234.328 124.185ZM228.798 123.737H233.068C233.012 123.177 232.798 122.725 232.424 122.379C232.051 122.034 231.561 121.861 230.954 121.861C230.404 121.861 229.937 122.029 229.554 122.365C229.172 122.692 228.92 123.149 228.798 123.737ZM237.808 128.147C237.024 128.147 236.38 127.947 235.876 127.545C235.381 127.144 235.045 126.659 234.868 126.089L235.89 125.641C236.207 126.64 236.847 127.139 237.808 127.139C238.228 127.139 238.569 127.037 238.83 126.831C239.101 126.617 239.236 126.36 239.236 126.061C239.236 125.735 239.096 125.478 238.816 125.291C238.536 125.105 238.195 124.965 237.794 124.871C237.402 124.778 237.005 124.675 236.604 124.563C236.212 124.442 235.876 124.232 235.596 123.933C235.316 123.635 235.176 123.238 235.176 122.743C235.176 122.183 235.4 121.731 235.848 121.385C236.296 121.04 236.898 120.867 237.654 120.867C238.279 120.867 238.835 121.031 239.32 121.357C239.805 121.675 240.123 122.09 240.272 122.603L239.278 123.037C239.185 122.683 238.979 122.398 238.662 122.183C238.354 121.959 238.009 121.847 237.626 121.847C237.225 121.847 236.907 121.927 236.674 122.085C236.441 122.235 236.324 122.449 236.324 122.729C236.324 122.963 236.422 123.154 236.618 123.303C236.823 123.453 237.075 123.56 237.374 123.625C237.682 123.681 238.013 123.765 238.368 123.877C238.723 123.98 239.049 124.097 239.348 124.227C239.647 124.358 239.894 124.582 240.09 124.899C240.295 125.207 240.398 125.59 240.398 126.047C240.398 126.663 240.16 127.167 239.684 127.559C239.208 127.951 238.583 128.147 237.808 128.147ZM243.925 128.147C243.141 128.147 242.497 127.947 241.993 127.545C241.498 127.144 241.162 126.659 240.985 126.089L242.007 125.641C242.324 126.64 242.964 127.139 243.925 127.139C244.345 127.139 244.686 127.037 244.947 126.831C245.218 126.617 245.353 126.36 245.353 126.061C245.353 125.735 245.213 125.478 244.933 125.291C244.653 125.105 244.312 124.965 243.911 124.871C243.519 124.778 243.122 124.675 242.721 124.563C242.329 124.442 241.993 124.232 241.713 123.933C241.433 123.635 241.293 123.238 241.293 122.743C241.293 122.183 241.517 121.731 241.965 121.385C242.413 121.04 243.015 120.867 243.771 120.867C244.396 120.867 244.952 121.031 245.437 121.357C245.922 121.675 246.24 122.09 246.389 122.603L245.395 123.037C245.302 122.683 245.096 122.398 244.779 122.183C244.471 121.959 244.126 121.847 243.743 121.847C243.342 121.847 243.024 121.927 242.791 122.085C242.558 122.235 242.441 122.449 242.441 122.729C242.441 122.963 242.539 123.154 242.735 123.303C242.94 123.453 243.192 123.56 243.491 123.625C243.799 123.681 244.13 123.765 244.485 123.877C244.84 123.98 245.166 124.097 245.465 124.227C245.764 124.358 246.011 124.582 246.207 124.899C246.412 125.207 246.515 125.59 246.515 126.047C246.515 126.663 246.277 127.167 245.801 127.559C245.325 127.951 244.7 128.147 243.925 128.147ZM250.042 128.147C249.258 128.147 248.614 127.947 248.11 127.545C247.615 127.144 247.279 126.659 247.102 126.089L248.124 125.641C248.441 126.64 249.08 127.139 250.042 127.139C250.462 127.139 250.802 127.037 251.064 126.831C251.334 126.617 251.47 126.36 251.47 126.061C251.47 125.735 251.33 125.478 251.05 125.291C250.77 125.105 250.429 124.965 250.028 124.871C249.636 124.778 249.239 124.675 248.838 124.563C248.446 124.442 248.11 124.232 247.83 123.933C247.55 123.635 247.41 123.238 247.41 122.743C247.41 122.183 247.634 121.731 248.082 121.385C248.53 121.04 249.132 120.867 249.888 120.867C250.513 120.867 251.068 121.031 251.554 121.357C252.039 121.675 252.356 122.09 252.506 122.603L251.512 123.037C251.418 122.683 251.213 122.398 250.896 122.183C250.588 121.959 250.242 121.847 249.86 121.847C249.458 121.847 249.141 121.927 248.908 122.085C248.674 122.235 248.558 122.449 248.558 122.729C248.558 122.963 248.656 123.154 248.852 123.303C249.057 123.453 249.309 123.56 249.608 123.625C249.916 123.681 250.247 123.765 250.602 123.877C250.956 123.98 251.283 124.097 251.582 124.227C251.88 124.358 252.128 124.582 252.324 124.899C252.529 125.207 252.632 125.59 252.632 126.047C252.632 126.663 252.394 127.167 251.918 127.559C251.442 127.951 250.816 128.147 250.042 128.147Z" fill="#2B3834"/>
<path d="M92.4706 179.989C93.6193 179.989 94.5506 179.057 94.5506 177.909C94.5506 176.76 93.6193 175.829 92.4706 175.829C91.3218 175.829 90.3906 176.76 90.3906 177.909C90.3906 179.057 91.3218 179.989 92.4706 179.989Z" stroke="#2B3834"/>
<path d="M86.8839 176.695C88.1972 170.922 96.7506 170.929 98.0572 176.702C98.8239 180.089 96.7172 182.955 94.8706 184.729C93.5306 186.022 91.4106 186.022 90.0639 184.729C88.2239 182.955 86.1172 180.082 86.8839 176.695Z" stroke="#2B3834"/>
<path d="M111.971 181.035V176.933L108.527 171.235H109.969L112.615 175.715L115.275 171.235H116.717L113.259 176.933V181.035H111.971ZM121.897 180.125C121.225 180.807 120.366 181.147 119.321 181.147C118.276 181.147 117.417 180.807 116.745 180.125C116.073 179.435 115.737 178.562 115.737 177.507C115.737 176.453 116.073 175.585 116.745 174.903C117.417 174.213 118.276 173.867 119.321 173.867C120.366 173.867 121.225 174.213 121.897 174.903C122.578 175.585 122.919 176.453 122.919 177.507C122.919 178.562 122.578 179.435 121.897 180.125ZM117.613 179.369C118.052 179.845 118.621 180.083 119.321 180.083C120.021 180.083 120.59 179.845 121.029 179.369C121.468 178.884 121.687 178.263 121.687 177.507C121.687 176.751 121.468 176.135 121.029 175.659C120.59 175.174 120.021 174.931 119.321 174.931C118.621 174.931 118.052 175.174 117.613 175.659C117.174 176.135 116.955 176.751 116.955 177.507C116.955 178.263 117.174 178.884 117.613 179.369ZM130.294 173.979V181.035H129.104V179.705C128.852 180.144 128.516 180.494 128.096 180.755C127.676 181.017 127.204 181.147 126.682 181.147C125.944 181.147 125.338 180.919 124.862 180.461C124.395 180.004 124.162 179.402 124.162 178.655V173.979H125.352V178.431C125.352 178.917 125.496 179.313 125.786 179.621C126.075 179.92 126.462 180.069 126.948 180.069C127.61 180.069 128.133 179.803 128.516 179.271C128.908 178.73 129.104 177.997 129.104 177.073V173.979H130.294ZM136.078 175.141C135.817 175.029 135.513 174.973 135.168 174.973C134.571 174.973 134.081 175.263 133.698 175.841C133.325 176.411 133.138 177.246 133.138 178.347V181.035H131.948V173.979H133.138V175.407C133.343 174.959 133.651 174.591 134.062 174.301C134.473 174.012 134.897 173.867 135.336 173.867C135.644 173.867 135.915 173.909 136.148 173.993L136.078 175.141ZM142.756 173.867C143.624 173.867 144.324 174.105 144.856 174.581C145.388 175.057 145.654 175.701 145.654 176.513V181.035H144.478V179.831C144.273 180.233 143.956 180.555 143.526 180.797C143.106 181.031 142.64 181.147 142.126 181.147C141.426 181.147 140.852 180.956 140.404 180.573C139.966 180.181 139.746 179.677 139.746 179.061C139.746 177.736 140.866 176.961 143.106 176.737L144.478 176.583V176.443C144.478 175.958 144.32 175.575 144.002 175.295C143.694 175.006 143.279 174.861 142.756 174.861C142.271 174.861 141.87 174.997 141.552 175.267C141.235 175.538 141.053 175.911 141.006 176.387L139.9 176.177C140.003 175.477 140.316 174.917 140.838 174.497C141.37 174.077 142.01 173.867 142.756 173.867ZM142.308 180.167C142.99 180.167 143.522 179.957 143.904 179.537C144.287 179.117 144.478 178.553 144.478 177.843V177.507L143.106 177.661C141.66 177.82 140.936 178.282 140.936 179.047C140.936 179.374 141.062 179.645 141.314 179.859C141.576 180.065 141.907 180.167 142.308 180.167ZM150.305 181.147C149.241 181.147 148.406 180.811 147.799 180.139C147.202 179.458 146.903 178.581 146.903 177.507C146.903 176.434 147.202 175.561 147.799 174.889C148.397 174.208 149.227 173.867 150.291 173.867C150.758 173.867 151.201 173.97 151.621 174.175C152.051 174.381 152.377 174.651 152.601 174.987V171.123H153.791V181.035H152.601V180.013C152.443 180.34 152.149 180.611 151.719 180.825C151.29 181.04 150.819 181.147 150.305 181.147ZM148.751 179.383C149.171 179.85 149.727 180.083 150.417 180.083C151.108 180.083 151.663 179.85 152.083 179.383C152.503 178.907 152.713 178.282 152.713 177.507C152.713 176.733 152.503 176.112 152.083 175.645C151.663 175.169 151.108 174.931 150.417 174.931C149.727 174.931 149.171 175.169 148.751 175.645C148.331 176.112 148.121 176.733 148.121 177.507C148.121 178.282 148.331 178.907 148.751 179.383ZM158.434 181.147C157.37 181.147 156.534 180.811 155.928 180.139C155.33 179.458 155.032 178.581 155.032 177.507C155.032 176.434 155.33 175.561 155.928 174.889C156.525 174.208 157.356 173.867 158.42 173.867C158.886 173.867 159.33 173.97 159.75 174.175C160.179 174.381 160.506 174.651 160.73 174.987V171.123H161.92V181.035H160.73V180.013C160.571 180.34 160.277 180.611 159.848 180.825C159.418 181.04 158.947 181.147 158.434 181.147ZM156.88 179.383C157.3 179.85 157.855 180.083 158.546 180.083C159.236 180.083 159.792 179.85 160.212 179.383C160.632 178.907 160.842 178.282 160.842 177.507C160.842 176.733 160.632 176.112 160.212 175.645C159.792 175.169 159.236 174.931 158.546 174.931C157.855 174.931 157.3 175.169 156.88 175.645C156.46 176.112 156.25 176.733 156.25 177.507C156.25 178.282 156.46 178.907 156.88 179.383ZM167.696 175.141C167.434 175.029 167.131 174.973 166.786 174.973C166.188 174.973 165.698 175.263 165.316 175.841C164.942 176.411 164.756 177.246 164.756 178.347V181.035H163.566V173.979H164.756V175.407C164.961 174.959 165.269 174.591 165.68 174.301C166.09 174.012 166.515 173.867 166.954 173.867C167.262 173.867 167.532 173.909 167.766 173.993L167.696 175.141ZM174.701 177.185C174.701 177.381 174.692 177.563 174.673 177.731H169.101C169.138 178.441 169.362 179.015 169.773 179.453C170.193 179.883 170.72 180.097 171.355 180.097C171.896 180.097 172.344 179.976 172.699 179.733C173.054 179.491 173.282 179.15 173.385 178.711L174.505 178.977C174.328 179.659 173.959 180.191 173.399 180.573C172.848 180.956 172.167 181.147 171.355 181.147C170.319 181.147 169.484 180.797 168.849 180.097C168.224 179.397 167.911 178.534 167.911 177.507C167.911 176.471 168.219 175.608 168.835 174.917C169.46 174.217 170.291 173.867 171.327 173.867C172.344 173.867 173.161 174.189 173.777 174.833C174.393 175.468 174.701 176.252 174.701 177.185ZM169.171 176.737H173.441C173.385 176.177 173.17 175.725 172.797 175.379C172.424 175.034 171.934 174.861 171.327 174.861C170.776 174.861 170.31 175.029 169.927 175.365C169.544 175.692 169.292 176.149 169.171 176.737ZM178.251 181.147C177.467 181.147 176.823 180.947 176.319 180.545C175.824 180.144 175.488 179.659 175.311 179.089L176.333 178.641C176.65 179.64 177.289 180.139 178.251 180.139C178.671 180.139 179.011 180.037 179.273 179.831C179.543 179.617 179.679 179.36 179.679 179.061C179.679 178.735 179.539 178.478 179.259 178.291C178.979 178.105 178.638 177.965 178.237 177.871C177.845 177.778 177.448 177.675 177.047 177.563C176.655 177.442 176.319 177.232 176.039 176.933C175.759 176.635 175.619 176.238 175.619 175.743C175.619 175.183 175.843 174.731 176.291 174.385C176.739 174.04 177.341 173.867 178.097 173.867C178.722 173.867 179.277 174.031 179.763 174.357C180.248 174.675 180.565 175.09 180.715 175.603L179.721 176.037C179.627 175.683 179.422 175.398 179.105 175.183C178.797 174.959 178.451 174.847 178.069 174.847C177.667 174.847 177.35 174.927 177.117 175.085C176.883 175.235 176.767 175.449 176.767 175.729C176.767 175.963 176.865 176.154 177.061 176.303C177.266 176.453 177.518 176.56 177.817 176.625C178.125 176.681 178.456 176.765 178.811 176.877C179.165 176.98 179.492 177.097 179.791 177.227C180.089 177.358 180.337 177.582 180.533 177.899C180.738 178.207 180.841 178.59 180.841 179.047C180.841 179.663 180.603 180.167 180.127 180.559C179.651 180.951 179.025 181.147 178.251 181.147ZM184.437 181.147C183.653 181.147 183.009 180.947 182.505 180.545C182.011 180.144 181.675 179.659 181.497 179.089L182.519 178.641C182.837 179.64 183.476 180.139 184.437 180.139C184.857 180.139 185.198 180.037 185.459 179.831C185.73 179.617 185.865 179.36 185.865 179.061C185.865 178.735 185.725 178.478 185.445 178.291C185.165 178.105 184.825 177.965 184.423 177.871C184.031 177.778 183.635 177.675 183.233 177.563C182.841 177.442 182.505 177.232 182.225 176.933C181.945 176.635 181.805 176.238 181.805 175.743C181.805 175.183 182.029 174.731 182.477 174.385C182.925 174.04 183.527 173.867 184.283 173.867C184.909 173.867 185.464 174.031 185.949 174.357C186.435 174.675 186.752 175.09 186.901 175.603L185.907 176.037C185.814 175.683 185.609 175.398 185.291 175.183C184.983 174.959 184.638 174.847 184.255 174.847C183.854 174.847 183.537 174.927 183.303 175.085C183.07 175.235 182.953 175.449 182.953 175.729C182.953 175.963 183.051 176.154 183.247 176.303C183.453 176.453 183.705 176.56 184.003 176.625C184.311 176.681 184.643 176.765 184.997 176.877C185.352 176.98 185.679 177.097 185.977 177.227C186.276 177.358 186.523 177.582 186.719 177.899C186.925 178.207 187.027 178.59 187.027 179.047C187.027 179.663 186.789 180.167 186.313 180.559C185.837 180.951 185.212 181.147 184.437 181.147Z" fill="#2B3834"/>
<path d="M99.1159 219.255C99.1159 219.495 99.0626 219.742 98.9493 219.982C98.8359 220.222 98.6893 220.449 98.4959 220.662C98.1693 221.022 97.8093 221.282 97.4026 221.449C97.0026 221.615 96.5693 221.702 96.1026 221.702C95.4226 221.702 94.6959 221.542 93.9293 221.215C93.1626 220.889 92.3959 220.449 91.6359 219.895C90.8693 219.335 90.1426 218.715 89.4493 218.029C88.7626 217.335 88.1426 216.609 87.5893 215.849C87.0426 215.089 86.6026 214.329 86.2826 213.575C85.9626 212.815 85.8026 212.089 85.8026 211.395C85.8026 210.942 85.8826 210.509 86.0426 210.109C86.2026 209.702 86.4559 209.329 86.8093 208.995C87.2359 208.575 87.7026 208.369 88.1959 208.369C88.3826 208.369 88.5693 208.409 88.7359 208.489C88.9093 208.569 89.0626 208.689 89.1826 208.862L90.7293 211.042C90.8493 211.209 90.9359 211.362 90.9959 211.509C91.0559 211.649 91.0893 211.789 91.0893 211.915C91.0893 212.075 91.0426 212.235 90.9493 212.389C90.8626 212.542 90.7359 212.702 90.5759 212.862L90.0693 213.389C89.9959 213.462 89.9626 213.549 89.9626 213.655C89.9626 213.709 89.9693 213.755 89.9826 213.809C90.0026 213.862 90.0226 213.902 90.0359 213.942C90.1559 214.162 90.3626 214.449 90.6559 214.795C90.9559 215.142 91.2759 215.495 91.6226 215.849C91.9826 216.202 92.3293 216.529 92.6826 216.829C93.0293 217.122 93.3159 217.322 93.5426 217.442C93.5759 217.455 93.6159 217.475 93.6626 217.495C93.7159 217.515 93.7693 217.522 93.8293 217.522C93.9426 217.522 94.0293 217.482 94.1026 217.409L94.6093 216.909C94.7759 216.742 94.9359 216.615 95.0893 216.535C95.2426 216.442 95.3959 216.395 95.5626 216.395C95.6893 216.395 95.8226 216.422 95.9693 216.482C96.1159 216.542 96.2693 216.629 96.4359 216.742L98.6426 218.309C98.8159 218.429 98.9359 218.569 99.0093 218.735C99.0759 218.902 99.1159 219.069 99.1159 219.255Z" stroke="#2B3834" stroke-miterlimit="10"/>
<path d="M111.971 220.035V215.933L108.527 210.235H109.969L112.615 214.715L115.275 210.235H116.717L113.259 215.933V220.035H111.971ZM121.897 219.125C121.225 219.807 120.366 220.147 119.321 220.147C118.276 220.147 117.417 219.807 116.745 219.125C116.073 218.435 115.737 217.562 115.737 216.507C115.737 215.453 116.073 214.585 116.745 213.903C117.417 213.213 118.276 212.867 119.321 212.867C120.366 212.867 121.225 213.213 121.897 213.903C122.578 214.585 122.919 215.453 122.919 216.507C122.919 217.562 122.578 218.435 121.897 219.125ZM117.613 218.369C118.052 218.845 118.621 219.083 119.321 219.083C120.021 219.083 120.59 218.845 121.029 218.369C121.468 217.884 121.687 217.263 121.687 216.507C121.687 215.751 121.468 215.135 121.029 214.659C120.59 214.174 120.021 213.931 119.321 213.931C118.621 213.931 118.052 214.174 117.613 214.659C117.174 215.135 116.955 215.751 116.955 216.507C116.955 217.263 117.174 217.884 117.613 218.369ZM130.294 212.979V220.035H129.104V218.705C128.852 219.144 128.516 219.494 128.096 219.755C127.676 220.017 127.204 220.147 126.682 220.147C125.944 220.147 125.338 219.919 124.862 219.461C124.395 219.004 124.162 218.402 124.162 217.655V212.979H125.352V217.431C125.352 217.917 125.496 218.313 125.786 218.621C126.075 218.92 126.462 219.069 126.948 219.069C127.61 219.069 128.133 218.803 128.516 218.271C128.908 217.73 129.104 216.997 129.104 216.073V212.979H130.294ZM136.078 214.141C135.817 214.029 135.513 213.973 135.168 213.973C134.571 213.973 134.081 214.263 133.698 214.841C133.325 215.411 133.138 216.246 133.138 217.347V220.035H131.948V212.979H133.138V214.407C133.343 213.959 133.651 213.591 134.062 213.301C134.473 213.012 134.897 212.867 135.336 212.867C135.644 212.867 135.915 212.909 136.148 212.993L136.078 214.141ZM140.124 222.583V212.979H141.314V214.001C141.51 213.675 141.818 213.404 142.238 213.189C142.668 212.975 143.134 212.867 143.638 212.867C144.693 212.867 145.519 213.208 146.116 213.889C146.714 214.561 147.012 215.434 147.012 216.507C147.012 217.571 146.709 218.444 146.102 219.125C145.496 219.807 144.665 220.147 143.61 220.147C143.162 220.147 142.728 220.049 142.308 219.853C141.888 219.648 141.557 219.382 141.314 219.055V222.583H140.124ZM143.498 219.083C144.198 219.083 144.758 218.85 145.178 218.383C145.598 217.907 145.808 217.282 145.808 216.507C145.808 215.733 145.598 215.112 145.178 214.645C144.758 214.169 144.198 213.931 143.498 213.931C142.808 213.931 142.252 214.169 141.832 214.645C141.422 215.112 141.216 215.733 141.216 216.507C141.216 217.282 141.422 217.907 141.832 218.383C142.252 218.85 142.808 219.083 143.498 219.083ZM148.253 220.035V210.123H149.443V214.365C149.956 213.367 150.759 212.867 151.851 212.867C152.653 212.867 153.293 213.096 153.769 213.553C154.254 214.011 154.497 214.622 154.497 215.387V220.035H153.307V215.611C153.307 215.089 153.153 214.683 152.845 214.393C152.546 214.095 152.126 213.945 151.585 213.945C150.931 213.945 150.409 214.221 150.017 214.771C149.634 215.322 149.443 216.069 149.443 217.011V220.035H148.253ZM161.902 219.125C161.23 219.807 160.372 220.147 159.326 220.147C158.281 220.147 157.422 219.807 156.75 219.125C156.078 218.435 155.742 217.562 155.742 216.507C155.742 215.453 156.078 214.585 156.75 213.903C157.422 213.213 158.281 212.867 159.326 212.867C160.372 212.867 161.23 213.213 161.902 213.903C162.584 214.585 162.924 215.453 162.924 216.507C162.924 217.562 162.584 218.435 161.902 219.125ZM157.618 218.369C158.057 218.845 158.626 219.083 159.326 219.083C160.026 219.083 160.596 218.845 161.034 218.369C161.473 217.884 161.692 217.263 161.692 216.507C161.692 215.751 161.473 215.135 161.034 214.659C160.596 214.174 160.026 213.931 159.326 213.931C158.626 213.931 158.057 214.174 157.618 214.659C157.18 215.135 156.96 215.751 156.96 216.507C156.96 217.263 157.18 217.884 157.618 218.369ZM164.167 220.035V212.979H165.357V214.309C165.609 213.871 165.945 213.521 166.365 213.259C166.785 212.998 167.257 212.867 167.779 212.867C168.517 212.867 169.119 213.096 169.585 213.553C170.061 214.011 170.299 214.613 170.299 215.359V220.035H169.109V215.583C169.109 215.098 168.965 214.706 168.675 214.407C168.386 214.099 167.999 213.945 167.513 213.945C166.851 213.945 166.323 214.216 165.931 214.757C165.549 215.289 165.357 216.017 165.357 216.941V220.035H164.167ZM178.338 216.185C178.338 216.381 178.328 216.563 178.31 216.731H172.738C172.775 217.441 172.999 218.015 173.41 218.453C173.83 218.883 174.357 219.097 174.992 219.097C175.533 219.097 175.981 218.976 176.336 218.733C176.69 218.491 176.919 218.15 177.022 217.711L178.142 217.977C177.964 218.659 177.596 219.191 177.036 219.573C176.485 219.956 175.804 220.147 174.992 220.147C173.956 220.147 173.12 219.797 172.486 219.097C171.86 218.397 171.548 217.534 171.548 216.507C171.548 215.471 171.856 214.608 172.472 213.917C173.097 213.217 173.928 212.867 174.964 212.867C175.981 212.867 176.798 213.189 177.414 213.833C178.03 214.468 178.338 215.252 178.338 216.185ZM172.808 215.737H177.078C177.022 215.177 176.807 214.725 176.434 214.379C176.06 214.034 175.57 213.861 174.964 213.861C174.413 213.861 173.946 214.029 173.564 214.365C173.181 214.692 172.929 215.149 172.808 215.737ZM182.687 220.035V212.979H183.877V214.309C184.129 213.871 184.465 213.521 184.885 213.259C185.305 212.998 185.776 212.867 186.299 212.867C187.036 212.867 187.638 213.096 188.105 213.553C188.581 214.011 188.819 214.613 188.819 215.359V220.035H187.629V215.583C187.629 215.098 187.484 214.706 187.195 214.407C186.905 214.099 186.518 213.945 186.033 213.945C185.37 213.945 184.843 214.216 184.451 214.757C184.068 215.289 183.877 216.017 183.877 216.941V220.035H182.687ZM196.537 212.979V220.035H195.347V218.705C195.095 219.144 194.759 219.494 194.339 219.755C193.919 220.017 193.447 220.147 192.925 220.147C192.187 220.147 191.581 219.919 191.105 219.461C190.638 219.004 190.405 218.402 190.405 217.655V212.979H191.595V217.431C191.595 217.917 191.739 218.313 192.029 218.621C192.318 218.92 192.705 219.069 193.191 219.069C193.853 219.069 194.376 218.803 194.759 218.271C195.151 217.73 195.347 216.997 195.347 216.073V212.979H196.537ZM198.191 220.035V212.979H199.381V214.309C199.782 213.348 200.492 212.867 201.509 212.867C202.088 212.867 202.582 212.998 202.993 213.259C203.413 213.521 203.684 213.885 203.805 214.351C204.001 213.913 204.3 213.558 204.701 213.287C205.112 213.007 205.574 212.867 206.087 212.867C206.843 212.867 207.44 213.087 207.879 213.525C208.327 213.964 208.551 214.557 208.551 215.303V220.035H207.361V215.541C207.361 215.047 207.226 214.655 206.955 214.365C206.684 214.067 206.306 213.917 205.821 213.917C205.233 213.917 204.776 214.155 204.449 214.631C204.122 215.107 203.959 215.728 203.959 216.493V220.035H202.769V215.541C202.769 215.047 202.634 214.655 202.363 214.365C202.102 214.067 201.728 213.917 201.243 213.917C200.655 213.917 200.198 214.155 199.871 214.631C199.544 215.107 199.381 215.728 199.381 216.493V220.035H198.191ZM213.688 220.147C213.175 220.147 212.703 220.04 212.274 219.825C211.845 219.611 211.551 219.34 211.392 219.013V220.035H210.202V210.123H211.392V213.987C211.616 213.651 211.938 213.381 212.358 213.175C212.787 212.97 213.235 212.867 213.702 212.867C214.766 212.867 215.597 213.208 216.194 213.889C216.791 214.561 217.09 215.434 217.09 216.507C217.09 217.581 216.787 218.458 216.18 219.139C215.583 219.811 214.752 220.147 213.688 220.147ZM211.91 218.383C212.33 218.85 212.885 219.083 213.576 219.083C214.267 219.083 214.822 218.85 215.242 218.383C215.662 217.907 215.872 217.282 215.872 216.507C215.872 215.733 215.662 215.112 215.242 214.645C214.822 214.169 214.267 213.931 213.576 213.931C212.885 213.931 212.33 214.169 211.91 214.645C211.499 215.112 211.294 215.733 211.294 216.507C211.294 217.282 211.499 217.907 211.91 218.383ZM224.714 216.185C224.714 216.381 224.705 216.563 224.686 216.731H219.114C219.152 217.441 219.376 218.015 219.786 218.453C220.206 218.883 220.734 219.097 221.368 219.097C221.91 219.097 222.358 218.976 222.712 218.733C223.067 218.491 223.296 218.15 223.398 217.711L224.518 217.977C224.341 218.659 223.972 219.191 223.412 219.573C222.862 219.956 222.18 220.147 221.368 220.147C220.332 220.147 219.497 219.797 218.862 219.097C218.237 218.397 217.924 217.534 217.924 216.507C217.924 215.471 218.232 214.608 218.848 213.917C219.474 213.217 220.304 212.867 221.34 212.867C222.358 212.867 223.174 213.189 223.79 213.833C224.406 214.468 224.714 215.252 224.714 216.185ZM219.184 215.737H223.454C223.398 215.177 223.184 214.725 222.81 214.379C222.437 214.034 221.947 213.861 221.34 213.861C220.79 213.861 220.323 214.029 219.94 214.365C219.558 214.692 219.306 215.149 219.184 215.737ZM230.096 214.141C229.835 214.029 229.532 213.973 229.186 213.973C228.589 213.973 228.099 214.263 227.716 214.841C227.343 215.411 227.156 216.246 227.156 217.347V220.035H225.966V212.979H227.156V214.407C227.362 213.959 227.67 213.591 228.08 213.301C228.491 213.012 228.916 212.867 229.354 212.867C229.662 212.867 229.933 212.909 230.166 212.993L230.096 214.141Z" fill="#2B3834"/>
<path d="M95.8026 256.702H89.1359C87.1359 256.702 85.8026 255.702 85.8026 253.369V248.702C85.8026 246.369 87.1359 245.369 89.1359 245.369H95.8026C97.8026 245.369 99.1359 246.369 99.1359 248.702V253.369C99.1359 255.702 97.8026 256.702 95.8026 256.702Z" stroke="#2B3834" stroke-miterlimit="10" stroke-linecap="round" stroke-linejoin="round"/>
<path d="M95.8052 249.035L93.7185 250.702C93.0319 251.249 91.9052 251.249 91.2185 250.702L89.1385 249.035" stroke="#2B3834" stroke-miterlimit="10" stroke-linecap="round" stroke-linejoin="round"/>
<path d="M111.971 256.035V251.933L108.527 246.235H109.969L112.615 250.715L115.275 246.235H116.717L113.259 251.933V256.035H111.971ZM121.897 255.125C121.225 255.807 120.366 256.147 119.321 256.147C118.276 256.147 117.417 255.807 116.745 255.125C116.073 254.435 115.737 253.562 115.737 252.507C115.737 251.453 116.073 250.585 116.745 249.903C117.417 249.213 118.276 248.867 119.321 248.867C120.366 248.867 121.225 249.213 121.897 249.903C122.578 250.585 122.919 251.453 122.919 252.507C122.919 253.562 122.578 254.435 121.897 255.125ZM117.613 254.369C118.052 254.845 118.621 255.083 119.321 255.083C120.021 255.083 120.59 254.845 121.029 254.369C121.468 253.884 121.687 253.263 121.687 252.507C121.687 251.751 121.468 251.135 121.029 250.659C120.59 250.174 120.021 249.931 119.321 249.931C118.621 249.931 118.052 250.174 117.613 250.659C117.174 251.135 116.955 251.751 116.955 252.507C116.955 253.263 117.174 253.884 117.613 254.369ZM130.294 248.979V256.035H129.104V254.705C128.852 255.144 128.516 255.494 128.096 255.755C127.676 256.017 127.204 256.147 126.682 256.147C125.944 256.147 125.338 255.919 124.862 255.461C124.395 255.004 124.162 254.402 124.162 253.655V248.979H125.352V253.431C125.352 253.917 125.496 254.313 125.786 254.621C126.075 254.92 126.462 255.069 126.948 255.069C127.61 255.069 128.133 254.803 128.516 254.271C128.908 253.73 129.104 252.997 129.104 252.073V248.979H130.294ZM136.078 250.141C135.817 250.029 135.513 249.973 135.168 249.973C134.571 249.973 134.081 250.263 133.698 250.841C133.325 251.411 133.138 252.246 133.138 253.347V256.035H131.948V248.979H133.138V250.407C133.343 249.959 133.651 249.591 134.062 249.301C134.473 249.012 134.897 248.867 135.336 248.867C135.644 248.867 135.915 248.909 136.148 248.993L136.078 250.141ZM146.508 252.185C146.508 252.381 146.499 252.563 146.48 252.731H140.908C140.946 253.441 141.17 254.015 141.58 254.453C142 254.883 142.528 255.097 143.162 255.097C143.704 255.097 144.152 254.976 144.506 254.733C144.861 254.491 145.09 254.15 145.192 253.711L146.312 253.977C146.135 254.659 145.766 255.191 145.206 255.573C144.656 255.956 143.974 256.147 143.162 256.147C142.126 256.147 141.291 255.797 140.656 255.097C140.031 254.397 139.718 253.534 139.718 252.507C139.718 251.471 140.026 250.608 140.642 249.917C141.268 249.217 142.098 248.867 143.134 248.867C144.152 248.867 144.968 249.189 145.584 249.833C146.2 250.468 146.508 251.252 146.508 252.185ZM140.978 251.737H145.248C145.192 251.177 144.978 250.725 144.604 250.379C144.231 250.034 143.741 249.861 143.134 249.861C142.584 249.861 142.117 250.029 141.734 250.365C141.352 250.692 141.1 251.149 140.978 251.737ZM147.76 256.035V248.979H148.95V250.309C149.352 249.348 150.061 248.867 151.078 248.867C151.657 248.867 152.152 248.998 152.562 249.259C152.982 249.521 153.253 249.885 153.374 250.351C153.57 249.913 153.869 249.558 154.27 249.287C154.681 249.007 155.143 248.867 155.656 248.867C156.412 248.867 157.01 249.087 157.448 249.525C157.896 249.964 158.12 250.557 158.12 251.303V256.035H156.93V251.541C156.93 251.047 156.795 250.655 156.524 250.365C156.254 250.067 155.876 249.917 155.39 249.917C154.802 249.917 154.345 250.155 154.018 250.631C153.692 251.107 153.528 251.728 153.528 252.493V256.035H152.338V251.541C152.338 251.047 152.203 250.655 151.932 250.365C151.671 250.067 151.298 249.917 150.812 249.917C150.224 249.917 149.767 250.155 149.44 250.631C149.114 251.107 148.95 251.728 148.95 252.493V256.035H147.76ZM162.404 248.867C163.272 248.867 163.972 249.105 164.504 249.581C165.036 250.057 165.302 250.701 165.302 251.513V256.035H164.126V254.831C163.92 255.233 163.603 255.555 163.174 255.797C162.754 256.031 162.287 256.147 161.774 256.147C161.074 256.147 160.5 255.956 160.052 255.573C159.613 255.181 159.394 254.677 159.394 254.061C159.394 252.736 160.514 251.961 162.754 251.737L164.126 251.583V251.443C164.126 250.958 163.967 250.575 163.65 250.295C163.342 250.006 162.926 249.861 162.404 249.861C161.918 249.861 161.517 249.997 161.2 250.267C160.882 250.538 160.7 250.911 160.654 251.387L159.548 251.177C159.65 250.477 159.963 249.917 160.486 249.497C161.018 249.077 161.657 248.867 162.404 248.867ZM161.956 255.167C162.637 255.167 163.169 254.957 163.552 254.537C163.934 254.117 164.126 253.553 164.126 252.843V252.507L162.754 252.661C161.307 252.82 160.584 253.282 160.584 254.047C160.584 254.374 160.71 254.645 160.962 254.859C161.223 255.065 161.554 255.167 161.956 255.167ZM166.872 246.123H168.244V247.635H166.872V246.123ZM166.956 256.035V248.979H168.146V256.035H166.956ZM169.794 256.035V246.123H170.984V256.035H169.794ZM172.631 256.035V246.123H173.821V256.035H172.631ZM181.197 248.867C182.065 248.867 182.765 249.105 183.297 249.581C183.829 250.057 184.095 250.701 184.095 251.513V256.035H182.919V254.831C182.714 255.233 182.396 255.555 181.967 255.797C181.547 256.031 181.08 256.147 180.567 256.147C179.867 256.147 179.293 255.956 178.845 255.573C178.406 255.181 178.187 254.677 178.187 254.061C178.187 252.736 179.307 251.961 181.547 251.737L182.919 251.583V251.443C182.919 250.958 182.76 250.575 182.443 250.295C182.135 250.006 181.72 249.861 181.197 249.861C180.712 249.861 180.31 249.997 179.993 250.267C179.676 250.538 179.494 250.911 179.447 251.387L178.341 251.177C178.444 250.477 178.756 249.917 179.279 249.497C179.811 249.077 180.45 248.867 181.197 248.867ZM180.749 255.167C181.43 255.167 181.962 254.957 182.345 254.537C182.728 254.117 182.919 253.553 182.919 252.843V252.507L181.547 252.661C180.1 252.82 179.377 253.282 179.377 254.047C179.377 254.374 179.503 254.645 179.755 254.859C180.016 255.065 180.348 255.167 180.749 255.167ZM188.746 256.147C187.682 256.147 186.846 255.811 186.24 255.139C185.642 254.458 185.344 253.581 185.344 252.507C185.344 251.434 185.642 250.561 186.24 249.889C186.837 249.208 187.668 248.867 188.732 248.867C189.198 248.867 189.642 248.97 190.062 249.175C190.491 249.381 190.818 249.651 191.042 249.987V246.123H192.232V256.035H191.042V255.013C190.883 255.34 190.589 255.611 190.16 255.825C189.73 256.04 189.259 256.147 188.746 256.147ZM187.192 254.383C187.612 254.85 188.167 255.083 188.858 255.083C189.548 255.083 190.104 254.85 190.524 254.383C190.944 253.907 191.154 253.282 191.154 252.507C191.154 251.733 190.944 251.112 190.524 250.645C190.104 250.169 189.548 249.931 188.858 249.931C188.167 249.931 187.612 250.169 187.192 250.645C186.772 251.112 186.562 251.733 186.562 252.507C186.562 253.282 186.772 253.907 187.192 254.383ZM196.874 256.147C195.81 256.147 194.975 255.811 194.368 255.139C193.771 254.458 193.472 253.581 193.472 252.507C193.472 251.434 193.771 250.561 194.368 249.889C194.965 249.208 195.796 248.867 196.86 248.867C197.327 248.867 197.77 248.97 198.19 249.175C198.619 249.381 198.946 249.651 199.17 249.987V246.123H200.36V256.035H199.17V255.013C199.011 255.34 198.717 255.611 198.288 255.825C197.859 256.04 197.387 256.147 196.874 256.147ZM195.32 254.383C195.74 254.85 196.295 255.083 196.986 255.083C197.677 255.083 198.232 254.85 198.652 254.383C199.072 253.907 199.282 253.282 199.282 252.507C199.282 251.733 199.072 251.112 198.652 250.645C198.232 250.169 197.677 249.931 196.986 249.931C196.295 249.931 195.74 250.169 195.32 250.645C194.9 251.112 194.69 251.733 194.69 252.507C194.69 253.282 194.9 253.907 195.32 254.383ZM206.136 250.141C205.875 250.029 205.571 249.973 205.226 249.973C204.629 249.973 204.139 250.263 203.756 250.841C203.383 251.411 203.196 252.246 203.196 253.347V256.035H202.006V248.979H203.196V250.407C203.401 249.959 203.709 249.591 204.12 249.301C204.531 249.012 204.955 248.867 205.394 248.867C205.702 248.867 205.973 248.909 206.206 248.993L206.136 250.141ZM213.141 252.185C213.141 252.381 213.132 252.563 213.113 252.731H207.541C207.579 253.441 207.803 254.015 208.213 254.453C208.633 254.883 209.161 255.097 209.795 255.097C210.337 255.097 210.785 254.976 211.139 254.733C211.494 254.491 211.723 254.15 211.825 253.711L212.945 253.977C212.768 254.659 212.399 255.191 211.839 255.573C211.289 255.956 210.607 256.147 209.795 256.147C208.759 256.147 207.924 255.797 207.289 255.097C206.664 254.397 206.351 253.534 206.351 252.507C206.351 251.471 206.659 250.608 207.275 249.917C207.901 249.217 208.731 248.867 209.767 248.867C210.785 248.867 211.601 249.189 212.217 249.833C212.833 250.468 213.141 251.252 213.141 252.185ZM207.611 251.737H211.881C211.825 251.177 211.611 250.725 211.237 250.379C210.864 250.034 210.374 249.861 209.767 249.861C209.217 249.861 208.75 250.029 208.367 250.365C207.985 250.692 207.733 251.149 207.611 251.737ZM216.691 256.147C215.907 256.147 215.263 255.947 214.759 255.545C214.264 255.144 213.928 254.659 213.751 254.089L214.773 253.641C215.09 254.64 215.73 255.139 216.691 255.139C217.111 255.139 217.452 255.037 217.713 254.831C217.984 254.617 218.119 254.36 218.119 254.061C218.119 253.735 217.979 253.478 217.699 253.291C217.419 253.105 217.078 252.965 216.677 252.871C216.285 252.778 215.888 252.675 215.487 252.563C215.095 252.442 214.759 252.232 214.479 251.933C214.199 251.635 214.059 251.238 214.059 250.743C214.059 250.183 214.283 249.731 214.731 249.385C215.179 249.04 215.781 248.867 216.537 248.867C217.162 248.867 217.718 249.031 218.203 249.357C218.688 249.675 219.006 250.09 219.155 250.603L218.161 251.037C218.068 250.683 217.862 250.398 217.545 250.183C217.237 249.959 216.892 249.847 216.509 249.847C216.108 249.847 215.79 249.927 215.557 250.085C215.324 250.235 215.207 250.449 215.207 250.729C215.207 250.963 215.305 251.154 215.501 251.303C215.706 251.453 215.958 251.56 216.257 251.625C216.565 251.681 216.896 251.765 217.251 251.877C217.606 251.98 217.932 252.097 218.231 252.227C218.53 252.358 218.777 252.582 218.973 252.899C219.178 253.207 219.281 253.59 219.281 254.047C219.281 254.663 219.043 255.167 218.567 255.559C218.091 255.951 217.466 256.147 216.691 256.147ZM222.878 256.147C222.094 256.147 221.45 255.947 220.946 255.545C220.451 255.144 220.115 254.659 219.938 254.089L220.96 253.641C221.277 254.64 221.916 255.139 222.878 255.139C223.298 255.139 223.638 255.037 223.9 254.831C224.17 254.617 224.306 254.36 224.306 254.061C224.306 253.735 224.166 253.478 223.886 253.291C223.606 253.105 223.265 252.965 222.864 252.871C222.472 252.778 222.075 252.675 221.674 252.563C221.282 252.442 220.946 252.232 220.666 251.933C220.386 251.635 220.246 251.238 220.246 250.743C220.246 250.183 220.47 249.731 220.918 249.385C221.366 249.04 221.968 248.867 222.724 248.867C223.349 248.867 223.904 249.031 224.39 249.357C224.875 249.675 225.192 250.09 225.342 250.603L224.348 251.037C224.254 250.683 224.049 250.398 223.732 250.183C223.424 249.959 223.078 249.847 222.696 249.847C222.294 249.847 221.977 249.927 221.744 250.085C221.51 250.235 221.394 250.449 221.394 250.729C221.394 250.963 221.492 251.154 221.688 251.303C221.893 251.453 222.145 251.56 222.444 251.625C222.752 251.681 223.083 251.765 223.438 251.877C223.792 251.98 224.119 252.097 224.418 252.227C224.716 252.358 224.964 252.582 225.16 252.899C225.365 253.207 225.468 253.59 225.468 254.047C225.468 254.663 225.23 255.167 224.754 255.559C224.278 255.951 223.652 256.147 222.878 256.147Z" fill="#2B3834"/>
</g>
<g filter="url(#filter1_d_74_764)">
<rect x="258.118" y="292.635" width="225.882" height="63.2471" rx="6" fill="white" shape-rendering="crispEdges"/>
<rect x="258.618" y="293.135" width="224.882" height="62.2471" rx="5.5" stroke="#E7E9E8" shape-rendering="crispEdges"/>
<path d="M286.118 330.635C291.64 330.635 296.118 326.158 296.118 320.635C296.118 315.112 291.64 310.635 286.118 310.635C280.595 310.635 276.118 315.112 276.118 320.635C276.118 326.158 280.595 330.635 286.118 330.635Z" stroke="#2B3834" stroke-width="1.2" stroke-linecap="round" stroke-linejoin="round"/>
<path d="M282.118 311.635H283.118C281.168 317.475 281.168 323.795 283.118 329.635H282.118" stroke="#2B3834" stroke-width="1.2" stroke-linecap="round" stroke-linejoin="round"/>
<path d="M289.118 311.635C291.068 317.475 291.068 323.795 289.118 329.635" stroke="#2B3834" stroke-width="1.2" stroke-linecap="round" stroke-linejoin="round"/>
<path d="M277.118 324.635V323.635C282.958 325.585 289.278 325.585 295.118 323.635V324.635" stroke="#2B3834" stroke-width="1.2" stroke-linecap="round" stroke-linejoin="round"/>
<path d="M277.118 317.635C282.958 315.685 289.278 315.685 295.118 317.635" stroke="#2B3834" stroke-width="1.2" stroke-linecap="round" stroke-linejoin="round"/>
<path d="M329.168 313.546C328.252 312.62 327.16 311.886 325.956 311.386C324.753 310.887 323.462 310.632 322.158 310.636C316.698 310.636 312.248 315.086 312.248 320.546C312.248 322.296 312.708 323.996 313.568 325.496L312.168 330.636L317.418 329.256C318.868 330.046 320.498 330.466 322.158 330.466C327.618 330.466 332.068 326.016 332.068 320.556C332.068 317.906 331.038 315.416 329.168 313.546ZM322.158 328.786C320.678 328.786 319.228 328.386 317.958 327.636L317.658 327.456L314.538 328.276L315.368 325.236L315.168 324.926C314.346 323.613 313.91 322.096 313.908 320.546C313.908 316.006 317.608 312.306 322.148 312.306C324.348 312.306 326.418 313.166 327.968 314.726C328.736 315.49 329.344 316.399 329.758 317.4C330.172 318.401 330.382 319.473 330.378 320.556C330.398 325.096 326.698 328.786 322.158 328.786ZM326.678 322.626C326.428 322.506 325.208 321.906 324.988 321.816C324.758 321.736 324.598 321.696 324.428 321.936C324.258 322.186 323.788 322.746 323.648 322.906C323.508 323.076 323.358 323.096 323.108 322.966C322.858 322.846 322.058 322.576 321.118 321.736C320.378 321.076 319.888 320.266 319.738 320.016C319.598 319.766 319.718 319.636 319.848 319.506C319.958 319.396 320.098 319.216 320.218 319.076C320.338 318.936 320.388 318.826 320.468 318.666C320.548 318.496 320.508 318.356 320.448 318.236C320.388 318.116 319.888 316.896 319.688 316.396C319.488 315.916 319.278 315.976 319.128 315.966H318.648C318.478 315.966 318.218 316.026 317.988 316.276C317.768 316.526 317.128 317.126 317.128 318.346C317.128 319.566 318.018 320.746 318.138 320.906C318.258 321.076 319.888 323.576 322.368 324.646C322.958 324.906 323.418 325.056 323.778 325.166C324.368 325.356 324.908 325.326 325.338 325.266C325.818 325.196 326.808 324.666 327.008 324.086C327.218 323.506 327.218 323.016 327.148 322.906C327.078 322.796 326.928 322.746 326.678 322.626Z" fill="#2B3834"/>
<path d="M353.91 310.636H362.31C365.51 310.636 368.11 313.236 368.11 316.436V324.836C368.11 326.375 367.499 327.85 366.411 328.937C365.323 330.025 363.848 330.636 362.31 330.636H353.91C350.71 330.636 348.11 328.036 348.11 324.836V316.436C348.11 314.898 348.721 313.423 349.809 312.335C350.896 311.247 352.372 310.636 353.91 310.636ZM353.71 312.636C352.755 312.636 351.839 313.016 351.164 313.691C350.489 314.366 350.11 315.281 350.11 316.236V325.036C350.11 327.026 351.72 328.636 353.71 328.636H362.51C363.465 328.636 364.38 328.257 365.055 327.582C365.731 326.907 366.11 325.991 366.11 325.036V316.236C366.11 314.246 364.5 312.636 362.51 312.636H353.71ZM363.36 314.136C363.691 314.136 364.009 314.268 364.244 314.502C364.478 314.737 364.61 315.055 364.61 315.386C364.61 315.718 364.478 316.036 364.244 316.27C364.009 316.505 363.691 316.636 363.36 316.636C363.028 316.636 362.71 316.505 362.476 316.27C362.242 316.036 362.11 315.718 362.11 315.386C362.11 315.055 362.242 314.737 362.476 314.502C362.71 314.268 363.028 314.136 363.36 314.136ZM358.11 315.636C359.436 315.636 360.708 316.163 361.645 317.101C362.583 318.038 363.11 319.31 363.11 320.636C363.11 321.962 362.583 323.234 361.645 324.172C360.708 325.109 359.436 325.636 358.11 325.636C356.784 325.636 355.512 325.109 354.574 324.172C353.637 323.234 353.11 321.962 353.11 320.636C353.11 319.31 353.637 318.038 354.574 317.101C355.512 316.163 356.784 315.636 358.11 315.636ZM358.11 317.636C357.314 317.636 356.551 317.952 355.989 318.515C355.426 319.078 355.11 319.841 355.11 320.636C355.11 321.432 355.426 322.195 355.989 322.758C356.551 323.32 357.314 323.636 358.11 323.636C358.905 323.636 359.669 323.32 360.231 322.758C360.794 322.195 361.11 321.432 361.11 320.636C361.11 319.841 360.794 319.078 360.231 318.515C359.669 317.952 358.905 317.636 358.11 317.636Z" fill="#2B3834"/>
<path d="M401.118 311.635C401.648 311.635 402.157 311.846 402.532 312.221C402.907 312.596 403.118 313.105 403.118 313.635V327.635C403.118 328.166 402.907 328.674 402.532 329.049C402.157 329.425 401.648 329.635 401.118 329.635H387.118C386.587 329.635 386.079 329.425 385.703 329.049C385.328 328.674 385.118 328.166 385.118 327.635V313.635C385.118 313.105 385.328 312.596 385.703 312.221C386.079 311.846 386.587 311.635 387.118 311.635H401.118ZM400.618 327.135V321.835C400.618 320.971 400.274 320.141 399.663 319.53C399.051 318.919 398.222 318.575 397.358 318.575C396.508 318.575 395.518 319.095 395.038 319.875V318.765H392.248V327.135H395.038V322.205C395.038 321.435 395.658 320.805 396.428 320.805C396.799 320.805 397.155 320.953 397.418 321.215C397.68 321.478 397.828 321.834 397.828 322.205V327.135H400.618ZM388.998 317.195C389.443 317.195 389.871 317.018 390.186 316.703C390.501 316.388 390.678 315.961 390.678 315.515C390.678 314.585 389.928 313.825 388.998 313.825C388.549 313.825 388.12 314.003 387.803 314.32C387.486 314.637 387.308 315.067 387.308 315.515C387.308 316.445 388.068 317.195 388.998 317.195ZM390.388 327.135V318.765H387.618V327.135H390.388Z" fill="#2B3834"/>
<path d="M433.475 314.184C432.715 314.184 431.985 314.482 431.443 315.015C430.901 315.547 430.589 316.271 430.575 317.03L430.547 318.605C430.545 318.69 430.526 318.773 430.49 318.85C430.454 318.927 430.402 318.995 430.338 319.05C430.274 319.105 430.198 319.146 430.117 319.17C430.036 319.194 429.951 319.201 429.867 319.189L428.305 318.976C426.252 318.696 424.284 317.751 422.395 316.178C421.798 319.488 422.965 321.781 425.778 323.55L427.525 324.648C427.608 324.701 427.676 324.772 427.725 324.857C427.774 324.942 427.801 325.037 427.805 325.135C427.808 325.233 427.788 325.33 427.745 325.418C427.702 325.506 427.639 325.583 427.56 325.64L425.968 326.804C426.915 326.864 427.814 326.822 428.56 326.674C433.278 325.732 436.415 322.182 436.415 316.326C436.415 315.848 435.402 314.184 433.475 314.184ZM428.575 316.994C428.592 316.03 428.894 315.093 429.441 314.3C429.989 313.506 430.759 312.892 431.654 312.534C432.549 312.176 433.53 312.09 434.474 312.286C435.417 312.483 436.282 312.954 436.96 313.639C437.671 313.634 438.276 313.814 439.628 312.993C439.294 314.633 439.128 315.346 438.415 316.325C438.415 323.966 433.718 327.683 428.951 328.634C425.684 329.286 420.931 328.215 419.571 326.792C420.264 326.739 423.084 326.436 424.714 325.242C423.334 324.332 417.846 321.102 421.453 312.42C423.146 314.397 424.863 315.742 426.603 316.457C427.76 316.932 428.045 316.922 428.576 316.995L428.575 316.994Z" fill="#2B3834"/>
</g>
<g filter="url(#filter2_d_74_764)">
<rect x="4" y="0.117645" width="347.859" height="54.2118" rx="6" fill="#004741" shape-rendering="crispEdges"/>
<path d="M46.0414 32.8515C45.0494 32.8515 44.1427 32.6489 43.3214 32.2435C42.5107 31.8275 41.8441 31.1769 41.3214 30.2915C40.7987 29.4062 40.5374 28.3502 40.5374 27.1235C40.5374 25.3102 41.0707 23.9022 42.1374 22.8995C43.2041 21.8969 44.5054 21.3955 46.0414 21.3955C47.3321 21.3955 48.4147 21.7262 49.2894 22.3875C50.1641 23.0382 50.7027 23.9235 50.9054 25.0435L49.0494 25.4435C48.8894 24.6969 48.5427 24.1102 48.0094 23.6835C47.4761 23.2462 46.8201 23.0275 46.0414 23.0275C44.9854 23.0275 44.1214 23.3902 43.4494 24.1155C42.7774 24.8302 42.4414 25.8329 42.4414 27.1235C42.4414 28.4142 42.7721 29.4169 43.4334 30.1315C44.1054 30.8462 44.9747 31.2035 46.0414 31.2035C46.8201 31.2035 47.4654 31.0062 47.9774 30.6115C48.4894 30.2169 48.8361 29.6622 49.0174 28.9475L50.8894 29.3475C50.6121 30.4355 50.0467 31.2942 49.1934 31.9235C48.3401 32.5422 47.2894 32.8515 46.0414 32.8515ZM56.2439 32.8515C55.0279 32.8515 54.0306 32.4622 53.2519 31.6835C52.4732 30.8942 52.0839 29.8969 52.0839 28.6915C52.0839 27.4862 52.4732 26.4942 53.2519 25.7155C54.0306 24.9262 55.0279 24.5315 56.2439 24.5315C57.4492 24.5315 58.4412 24.9262 59.2199 25.7155C60.0092 26.4942 60.4039 27.4862 60.4039 28.6915C60.4039 29.8969 60.0092 30.8942 59.2199 31.6835C58.4412 32.4622 57.4492 32.8515 56.2439 32.8515ZM54.4999 30.5955C54.9479 31.0862 55.5292 31.3315 56.2439 31.3315C56.9586 31.3315 57.5346 31.0862 57.9719 30.5955C58.4199 30.1049 58.6439 29.4702 58.6439 28.6915C58.6439 27.9129 58.4199 27.2782 57.9719 26.7875C57.5346 26.2969 56.9586 26.0515 56.2439 26.0515C55.5292 26.0515 54.9479 26.2969 54.4999 26.7875C54.0626 27.2782 53.8439 27.9129 53.8439 28.6915C53.8439 29.4702 54.0626 30.1049 54.4999 30.5955ZM62.0159 35.6355V24.6595H63.7599V25.6835C63.9946 25.3422 64.3359 25.0649 64.7839 24.8515C65.2319 24.6382 65.7279 24.5315 66.2719 24.5315C67.4452 24.5315 68.3679 24.9155 69.0399 25.6835C69.7226 26.4515 70.0639 27.4542 70.0639 28.6915C70.0639 29.9289 69.7119 30.9315 69.0079 31.6995C68.3146 32.4675 67.3706 32.8515 66.1759 32.8515C65.6852 32.8515 65.2212 32.7555 64.7839 32.5635C64.3466 32.3715 64.0052 32.1155 63.7599 31.7955V35.6355H62.0159ZM64.2879 30.6115C64.7146 31.0915 65.2799 31.3315 65.9839 31.3315C66.6879 31.3315 67.2532 31.0915 67.6799 30.6115C68.1066 30.1209 68.3199 29.4809 68.3199 28.6915C68.3199 27.8915 68.1066 27.2515 67.6799 26.7715C67.2532 26.2915 66.6879 26.0515 65.9839 26.0515C65.2799 26.0515 64.7146 26.2915 64.2879 26.7715C63.8612 27.2515 63.6479 27.8915 63.6479 28.6915C63.6479 29.4809 63.8612 30.1209 64.2879 30.6115ZM76.6557 24.6595H78.4477L74.2077 35.6355H72.4157L73.6317 32.4835L70.4957 24.6595H72.3837L74.4957 30.2435L76.6557 24.6595ZM93.021 32.7235H90.813L89.933 31.6995C88.973 32.4675 87.9384 32.8515 86.829 32.8515C85.7304 32.8515 84.8504 32.5529 84.189 31.9555C83.5384 31.3475 83.213 30.5262 83.213 29.4915C83.213 28.7662 83.4104 28.1742 83.805 27.7155C84.1997 27.2569 84.7384 26.8515 85.421 26.4995C84.6957 25.5929 84.333 24.7982 84.333 24.1155C84.333 23.2942 84.589 22.6382 85.101 22.1475C85.6237 21.6462 86.3117 21.3955 87.165 21.3955C88.0184 21.3955 88.6957 21.6462 89.197 22.1475C89.709 22.6382 89.965 23.2942 89.965 24.1155C89.965 24.7769 89.789 25.3262 89.437 25.7635C89.085 26.2009 88.5997 26.5902 87.981 26.9315L89.901 29.1395L91.341 27.5235L92.637 28.7235L91.101 30.5155L93.021 32.7235ZM85.965 24.1155C85.965 24.4462 86.2904 24.9955 86.941 25.7635C87.3997 25.5289 87.7464 25.2835 87.981 25.0275C88.2264 24.7715 88.349 24.4675 88.349 24.1155C88.349 23.7635 88.237 23.4809 88.013 23.2675C87.7997 23.0542 87.517 22.9475 87.165 22.9475C86.813 22.9475 86.525 23.0595 86.301 23.2835C86.077 23.4969 85.965 23.7742 85.965 24.1155ZM86.925 31.2195C87.5117 31.2195 88.1197 30.9315 88.749 30.3555L86.477 27.7315C85.997 27.9875 85.629 28.2542 85.373 28.5315C85.1277 28.7982 85.005 29.1182 85.005 29.4915C85.005 30.0142 85.181 30.4355 85.533 30.7555C85.8957 31.0649 86.3597 31.2195 86.925 31.2195ZM101.759 32.8515C100.671 32.8515 99.7215 32.5262 98.9108 31.8755C98.1108 31.2249 97.6308 30.3875 97.4708 29.3635L99.1828 28.8355C99.2788 29.5502 99.5721 30.1262 100.063 30.5635C100.553 31.0009 101.14 31.2195 101.823 31.2195C102.484 31.2195 103.012 31.0755 103.407 30.7875C103.812 30.4995 104.015 30.1155 104.015 29.6355C104.015 29.2302 103.86 28.8889 103.551 28.6115C103.252 28.3342 102.873 28.1315 102.415 28.0035C101.967 27.8649 101.476 27.7102 100.943 27.5395C100.42 27.3582 99.9295 27.1662 99.4708 26.9635C99.0228 26.7609 98.6441 26.4409 98.3348 26.0035C98.0361 25.5662 97.8868 25.0329 97.8868 24.4035C97.8868 23.5182 98.2495 22.7982 98.9748 22.2435C99.7001 21.6782 100.617 21.3955 101.727 21.3955C102.783 21.3955 103.684 21.6515 104.431 22.1635C105.177 22.6755 105.631 23.3529 105.791 24.1955L104.111 24.8835C103.993 24.3075 103.721 23.8542 103.295 23.5235C102.879 23.1929 102.356 23.0275 101.727 23.0275C101.119 23.0275 100.639 23.1502 100.287 23.3955C99.9455 23.6409 99.7748 23.9769 99.7748 24.4035C99.7748 24.7555 99.9241 25.0435 100.223 25.2675C100.532 25.4915 100.911 25.6569 101.359 25.7635C101.817 25.8595 102.313 25.9929 102.847 26.1635C103.38 26.3342 103.871 26.5315 104.319 26.7555C104.777 26.9689 105.156 27.3209 105.455 27.8115C105.764 28.3022 105.919 28.8995 105.919 29.6035C105.919 30.5849 105.54 31.3742 104.783 31.9715C104.025 32.5582 103.017 32.8515 101.759 32.8515ZM107.485 32.7235V21.3955H109.229V26.0515C109.794 25.0382 110.674 24.5315 111.869 24.5315C112.786 24.5315 113.517 24.7982 114.061 25.3315C114.615 25.8542 114.893 26.5529 114.893 27.4275V32.7235H113.149V27.8275C113.149 27.2942 112.989 26.8729 112.669 26.5635C112.359 26.2542 111.933 26.0995 111.389 26.0995C110.717 26.0995 110.189 26.3769 109.805 26.9315C109.421 27.4862 109.229 28.2542 109.229 29.2355V32.7235H107.485ZM120.01 24.5315C121.055 24.5315 121.892 24.8142 122.522 25.3795C123.151 25.9342 123.466 26.7075 123.466 27.6995V32.7235H121.754V31.4915C121.519 31.8969 121.172 32.2275 120.714 32.4835C120.255 32.7289 119.759 32.8515 119.226 32.8515C118.426 32.8515 117.775 32.6275 117.274 32.1795C116.772 31.7315 116.522 31.1609 116.522 30.4675C116.522 28.9315 117.759 28.0355 120.234 27.7795L121.754 27.6195V27.5075C121.754 27.0169 121.594 26.6275 121.274 26.3395C120.964 26.0515 120.543 25.9075 120.01 25.9075C119.519 25.9075 119.114 26.0462 118.794 26.3235C118.474 26.5902 118.287 26.9635 118.234 27.4435L116.666 27.1555C116.794 26.3662 117.167 25.7315 117.786 25.2515C118.404 24.7715 119.146 24.5315 120.01 24.5315ZM119.578 31.5075C120.25 31.5075 120.778 31.2995 121.162 30.8835C121.546 30.4675 121.743 29.9235 121.754 29.2515V28.9155L120.218 29.0915C118.895 29.2409 118.234 29.6835 118.234 30.4195C118.234 30.7395 118.356 31.0009 118.602 31.2035C118.847 31.4062 119.172 31.5075 119.578 31.5075ZM130.524 26.3555C130.236 26.2275 129.889 26.1635 129.484 26.1635C128.844 26.1635 128.311 26.4622 127.884 27.0595C127.468 27.6462 127.26 28.5315 127.26 29.7155V32.7235H125.516V24.6595H127.26V26.1955C127.473 25.7155 127.815 25.3209 128.284 25.0115C128.753 24.6915 129.233 24.5315 129.724 24.5315C130.076 24.5315 130.375 24.5795 130.62 24.6755L130.524 26.3555ZM139.019 28.3875C139.019 28.6755 139.008 28.9155 138.987 29.1075H132.827C132.902 29.8009 133.147 30.3502 133.563 30.7555C133.99 31.1609 134.523 31.3635 135.163 31.3635C135.696 31.3635 136.139 31.2462 136.491 31.0115C136.843 30.7662 137.072 30.4249 137.179 29.9875L138.827 30.4035C138.614 31.1822 138.182 31.7849 137.531 32.2115C136.88 32.6382 136.08 32.8515 135.131 32.8515C133.904 32.8515 132.928 32.4462 132.203 31.6355C131.478 30.8142 131.115 29.8329 131.115 28.6915C131.115 27.5395 131.462 26.5582 132.155 25.7475C132.859 24.9369 133.824 24.5315 135.051 24.5315C136.288 24.5315 137.259 24.9102 137.963 25.6675C138.667 26.4249 139.019 27.3315 139.019 28.3875ZM132.907 27.7795H137.163C137.11 27.2142 136.896 26.7609 136.523 26.4195C136.16 26.0782 135.67 25.9075 135.051 25.9075C134.496 25.9075 134.032 26.0729 133.659 26.4035C133.286 26.7235 133.035 27.1822 132.907 27.7795ZM148.677 32.8515C148.143 32.8515 147.653 32.7449 147.205 32.5315C146.757 32.3182 146.437 32.0409 146.245 31.6995V32.7235H144.501V21.3955H146.245V25.6675C146.49 25.3262 146.831 25.0542 147.269 24.8515C147.717 24.6382 148.197 24.5315 148.709 24.5315C149.903 24.5315 150.837 24.9155 151.509 25.6835C152.191 26.4515 152.533 27.4542 152.533 28.6915C152.533 29.9395 152.191 30.9475 151.509 31.7155C150.826 32.4729 149.882 32.8515 148.677 32.8515ZM146.757 30.6115C147.183 31.0915 147.749 31.3315 148.453 31.3315C149.157 31.3315 149.722 31.0915 150.149 30.6115C150.575 30.1209 150.789 29.4809 150.789 28.6915C150.789 27.8915 150.575 27.2515 150.149 26.7715C149.722 26.2915 149.157 26.0515 148.453 26.0515C147.749 26.0515 147.183 26.2915 146.757 26.7715C146.33 27.2515 146.117 27.8915 146.117 28.6915C146.117 29.4809 146.33 30.1209 146.757 30.6115ZM161.453 24.6595V32.7235H159.709V31.3795C159.432 31.8275 159.064 32.1849 158.605 32.4515C158.146 32.7182 157.634 32.8515 157.069 32.8515C156.194 32.8515 155.485 32.5902 154.941 32.0675C154.408 31.5342 154.141 30.8355 154.141 29.9715V24.6595H155.885V29.5715C155.885 30.0835 156.034 30.4995 156.333 30.8195C156.632 31.1289 157.037 31.2835 157.549 31.2835C158.221 31.2835 158.749 31.0115 159.133 30.4675C159.517 29.9235 159.709 29.1662 159.709 28.1955V24.6595H161.453ZM166.3 32.8515C165.393 32.8515 164.641 32.6222 164.044 32.1635C163.457 31.6942 163.057 31.1342 162.844 30.4835L164.284 29.8755C164.615 30.9315 165.287 31.4595 166.3 31.4595C166.705 31.4595 167.036 31.3582 167.292 31.1555C167.559 30.9529 167.692 30.7022 167.692 30.4035C167.692 30.0835 167.537 29.8329 167.228 29.6515C166.919 29.4702 166.54 29.3315 166.092 29.2355C165.655 29.1289 165.217 29.0062 164.78 28.8675C164.343 28.7182 163.969 28.4675 163.66 28.1155C163.351 27.7635 163.196 27.3049 163.196 26.7395C163.196 26.0995 163.452 25.5715 163.964 25.1555C164.487 24.7395 165.18 24.5315 166.044 24.5315C166.801 24.5315 167.473 24.7182 168.06 25.0915C168.647 25.4542 169.025 25.9289 169.196 26.5155L167.756 27.1235C167.66 26.7395 167.447 26.4355 167.116 26.2115C166.796 25.9875 166.444 25.8755 166.06 25.8755C165.676 25.8755 165.372 25.9502 165.148 26.0995C164.924 26.2382 164.812 26.4409 164.812 26.7075C164.812 26.9849 164.967 27.2035 165.276 27.3635C165.585 27.5129 165.959 27.6355 166.396 27.7315C166.844 27.8275 167.292 27.9502 167.74 28.0995C168.188 28.2489 168.567 28.5155 168.876 28.8995C169.185 29.2835 169.34 29.7795 169.34 30.3875C169.34 31.0915 169.057 31.6782 168.492 32.1475C167.927 32.6169 167.196 32.8515 166.3 32.8515ZM171.771 23.3155C171.451 23.3155 171.184 23.2089 170.971 22.9955C170.757 22.7715 170.651 22.5049 170.651 22.1955C170.651 21.8755 170.757 21.6089 170.971 21.3955C171.184 21.1715 171.451 21.0595 171.771 21.0595C172.101 21.0595 172.373 21.1715 172.587 21.3955C172.811 21.6089 172.923 21.8755 172.923 22.1955C172.923 22.5049 172.811 22.7715 172.587 22.9955C172.373 23.2089 172.101 23.3155 171.771 23.3155ZM170.907 32.7235V24.6595H172.651V32.7235H170.907ZM174.719 32.7235V24.6595H176.463V26.0035C177.082 25.0222 177.967 24.5315 179.119 24.5315C179.983 24.5315 180.682 24.7982 181.215 25.3315C181.759 25.8542 182.031 26.5475 182.031 27.4115V32.7235H180.287V27.8115C180.287 27.2995 180.138 26.8889 179.839 26.5795C179.54 26.2595 179.14 26.0995 178.639 26.0995C177.956 26.0995 177.423 26.3715 177.039 26.9155C176.655 27.4595 176.463 28.2169 176.463 29.1875V32.7235H174.719ZM191.55 28.3875C191.55 28.6755 191.54 28.9155 191.518 29.1075H185.358C185.433 29.8009 185.678 30.3502 186.094 30.7555C186.521 31.1609 187.054 31.3635 187.694 31.3635C188.228 31.3635 188.67 31.2462 189.022 31.0115C189.374 30.7662 189.604 30.4249 189.71 29.9875L191.358 30.4035C191.145 31.1822 190.713 31.7849 190.062 32.2115C189.412 32.6382 188.612 32.8515 187.662 32.8515C186.436 32.8515 185.46 32.4462 184.734 31.6355C184.009 30.8142 183.646 29.8329 183.646 28.6915C183.646 27.5395 183.993 26.5582 184.686 25.7475C185.39 24.9369 186.356 24.5315 187.582 24.5315C188.82 24.5315 189.79 24.9102 190.494 25.6675C191.198 26.4249 191.55 27.3315 191.55 28.3875ZM185.438 27.7795H189.694C189.641 27.2142 189.428 26.7609 189.054 26.4195C188.692 26.0782 188.201 25.9075 187.582 25.9075C187.028 25.9075 186.564 26.0729 186.19 26.4035C185.817 26.7235 185.566 27.1822 185.438 27.7795ZM195.878 32.8515C194.971 32.8515 194.219 32.6222 193.622 32.1635C193.035 31.6942 192.635 31.1342 192.422 30.4835L193.862 29.8755C194.193 30.9315 194.865 31.4595 195.878 31.4595C196.283 31.4595 196.614 31.3582 196.87 31.1555C197.137 30.9529 197.27 30.7022 197.27 30.4035C197.27 30.0835 197.115 29.8329 196.806 29.6515C196.497 29.4702 196.118 29.3315 195.67 29.2355C195.233 29.1289 194.795 29.0062 194.358 28.8675C193.921 28.7182 193.547 28.4675 193.238 28.1155C192.929 27.7635 192.774 27.3049 192.774 26.7395C192.774 26.0995 193.03 25.5715 193.542 25.1555C194.065 24.7395 194.758 24.5315 195.622 24.5315C196.379 24.5315 197.051 24.7182 197.638 25.0915C198.225 25.4542 198.603 25.9289 198.774 26.5155L197.334 27.1235C197.238 26.7395 197.025 26.4355 196.694 26.2115C196.374 25.9875 196.022 25.8755 195.638 25.8755C195.254 25.8755 194.95 25.9502 194.726 26.0995C194.502 26.2382 194.39 26.4409 194.39 26.7075C194.39 26.9849 194.545 27.2035 194.854 27.3635C195.163 27.5129 195.537 27.6355 195.974 27.7315C196.422 27.8275 196.87 27.9502 197.318 28.0995C197.766 28.2489 198.145 28.5155 198.454 28.8995C198.763 29.2835 198.918 29.7795 198.918 30.3875C198.918 31.0915 198.635 31.6782 198.07 32.1475C197.505 32.6169 196.774 32.8515 195.878 32.8515ZM203.269 32.8515C202.362 32.8515 201.61 32.6222 201.013 32.1635C200.426 31.6942 200.026 31.1342 199.813 30.4835L201.253 29.8755C201.583 30.9315 202.255 31.4595 203.269 31.4595C203.674 31.4595 204.005 31.3582 204.261 31.1555C204.527 30.9529 204.661 30.7022 204.661 30.4035C204.661 30.0835 204.506 29.8329 204.197 29.6515C203.887 29.4702 203.509 29.3315 203.061 29.2355C202.623 29.1289 202.186 29.0062 201.749 28.8675C201.311 28.7182 200.938 28.4675 200.629 28.1155C200.319 27.7635 200.165 27.3049 200.165 26.7395C200.165 26.0995 200.421 25.5715 200.933 25.1555C201.455 24.7395 202.149 24.5315 203.013 24.5315C203.77 24.5315 204.442 24.7182 205.029 25.0915C205.615 25.4542 205.994 25.9289 206.165 26.5155L204.725 27.1235C204.629 26.7395 204.415 26.4355 204.085 26.2115C203.765 25.9875 203.413 25.8755 203.029 25.8755C202.645 25.8755 202.341 25.9502 202.117 26.0995C201.893 26.2382 201.781 26.4409 201.781 26.7075C201.781 26.9849 201.935 27.2035 202.245 27.3635C202.554 27.5129 202.927 27.6355 203.365 27.7315C203.813 27.8275 204.261 27.9502 204.709 28.0995C205.157 28.2489 205.535 28.5155 205.845 28.8995C206.154 29.2835 206.309 29.7795 206.309 30.3875C206.309 31.0915 206.026 31.6782 205.461 32.1475C204.895 32.6169 204.165 32.8515 203.269 32.8515ZM211.719 35.6355V24.6595H213.463V25.6835C213.698 25.3422 214.039 25.0649 214.487 24.8515C214.935 24.6382 215.431 24.5315 215.975 24.5315C217.148 24.5315 218.071 24.9155 218.743 25.6835C219.426 26.4515 219.767 27.4542 219.767 28.6915C219.767 29.9289 219.415 30.9315 218.711 31.6995C218.018 32.4675 217.074 32.8515 215.879 32.8515C215.388 32.8515 214.924 32.7555 214.487 32.5635C214.05 32.3715 213.708 32.1155 213.463 31.7955V35.6355H211.719ZM213.991 30.6115C214.418 31.0915 214.983 31.3315 215.687 31.3315C216.391 31.3315 216.956 31.0915 217.383 30.6115C217.81 30.1209 218.023 29.4809 218.023 28.6915C218.023 27.8915 217.81 27.2515 217.383 26.7715C216.956 26.2915 216.391 26.0515 215.687 26.0515C214.983 26.0515 214.418 26.2915 213.991 26.7715C213.564 27.2515 213.351 27.8915 213.351 28.6915C213.351 29.4809 213.564 30.1209 213.991 30.6115ZM226.383 26.3555C226.095 26.2275 225.749 26.1635 225.343 26.1635C224.703 26.1635 224.17 26.4622 223.743 27.0595C223.327 27.6462 223.119 28.5315 223.119 29.7155V32.7235H221.375V24.6595H223.119V26.1955C223.333 25.7155 223.674 25.3209 224.143 25.0115C224.613 24.6915 225.093 24.5315 225.583 24.5315C225.935 24.5315 226.234 24.5795 226.479 24.6755L226.383 26.3555ZM231.135 32.8515C229.919 32.8515 228.921 32.4622 228.143 31.6835C227.364 30.8942 226.975 29.8969 226.975 28.6915C226.975 27.4862 227.364 26.4942 228.143 25.7155C228.921 24.9262 229.919 24.5315 231.135 24.5315C232.34 24.5315 233.332 24.9262 234.111 25.7155C234.9 26.4942 235.295 27.4862 235.295 28.6915C235.295 29.8969 234.9 30.8942 234.111 31.6835C233.332 32.4622 232.34 32.8515 231.135 32.8515ZM229.391 30.5955C229.839 31.0862 230.42 31.3315 231.135 31.3315C231.849 31.3315 232.425 31.0862 232.863 30.5955C233.311 30.1049 233.535 29.4702 233.535 28.6915C233.535 27.9129 233.311 27.2782 232.863 26.7875C232.425 26.2969 231.849 26.0515 231.135 26.0515C230.42 26.0515 229.839 26.2969 229.391 26.7875C228.953 27.2782 228.735 27.9129 228.735 28.6915C228.735 29.4702 228.953 30.1049 229.391 30.5955ZM237.455 32.7235V26.1475H236.127V24.6595H237.455V23.9715C237.455 23.0862 237.701 22.3929 238.191 21.8915C238.682 21.3902 239.322 21.1395 240.111 21.1395C240.506 21.1395 240.89 21.1982 241.263 21.3155L241.167 22.7875C240.89 22.6809 240.613 22.6275 240.335 22.6275C239.994 22.6275 239.717 22.7502 239.503 22.9955C239.301 23.2302 239.199 23.5449 239.199 23.9395V24.6595H241.167V26.1475H239.199V32.7235H237.455ZM243.567 23.3155C243.247 23.3155 242.981 23.2089 242.767 22.9955C242.554 22.7715 242.447 22.5049 242.447 22.1955C242.447 21.8755 242.554 21.6089 242.767 21.3955C242.981 21.1715 243.247 21.0595 243.567 21.0595C243.898 21.0595 244.17 21.1715 244.383 21.3955C244.607 21.6089 244.719 21.8755 244.719 22.1955C244.719 22.5049 244.607 22.7715 244.383 22.9955C244.17 23.2089 243.898 23.3155 243.567 23.3155ZM242.703 32.7235V24.6595H244.447V32.7235H242.703ZM246.516 32.7235V21.3955H248.26V32.7235H246.516ZM257.8 28.3875C257.8 28.6755 257.79 28.9155 257.768 29.1075H251.608C251.683 29.8009 251.928 30.3502 252.344 30.7555C252.771 31.1609 253.304 31.3635 253.944 31.3635C254.478 31.3635 254.92 31.2462 255.272 31.0115C255.624 30.7662 255.854 30.4249 255.96 29.9875L257.608 30.4035C257.395 31.1822 256.963 31.7849 256.312 32.2115C255.662 32.6382 254.862 32.8515 253.912 32.8515C252.686 32.8515 251.71 32.4462 250.984 31.6355C250.259 30.8142 249.896 29.8329 249.896 28.6915C249.896 27.5395 250.243 26.5582 250.936 25.7475C251.64 24.9369 252.606 24.5315 253.832 24.5315C255.07 24.5315 256.04 24.9102 256.744 25.6675C257.448 26.4249 257.8 27.3315 257.8 28.3875ZM251.688 27.7795H255.944C255.891 27.2142 255.678 26.7609 255.304 26.4195C254.942 26.0782 254.451 25.9075 253.832 25.9075C253.278 25.9075 252.814 26.0729 252.44 26.4035C252.067 26.7235 251.816 27.1822 251.688 27.7795ZM263.266 32.7235V21.3955H265.01V32.7235H263.266ZM267.942 23.3155C267.622 23.3155 267.356 23.2089 267.142 22.9955C266.929 22.7715 266.822 22.5049 266.822 22.1955C266.822 21.8755 266.929 21.6089 267.142 21.3955C267.356 21.1715 267.622 21.0595 267.942 21.0595C268.273 21.0595 268.545 21.1715 268.758 21.3955C268.982 21.6089 269.094 21.8755 269.094 22.1955C269.094 22.5049 268.982 22.7715 268.758 22.9955C268.545 23.2089 268.273 23.3155 267.942 23.3155ZM267.078 32.7235V24.6595H268.822V32.7235H267.078ZM270.891 32.7235V24.6595H272.635V26.0035C273.254 25.0222 274.139 24.5315 275.291 24.5315C276.155 24.5315 276.854 24.7982 277.387 25.3315C277.931 25.8542 278.203 26.5475 278.203 27.4115V32.7235H276.459V27.8115C276.459 27.2995 276.31 26.8889 276.011 26.5795C275.712 26.2595 275.312 26.0995 274.811 26.0995C274.128 26.0995 273.595 26.3715 273.211 26.9155C272.827 27.4595 272.635 28.2169 272.635 29.1875V32.7235H270.891ZM285.722 32.7235L283.018 29.0115L282.01 29.9555V32.7235H280.25V21.3955H282.01V27.6995L285.338 24.6595H287.594L284.25 27.8435L287.85 32.7235H285.722Z" fill="white"/>
<rect x="304.429" y="19.7235" width="11" height="11" rx="3.5" fill="white" stroke="white"/>
<rect x="299.429" y="23.7235" width="11" height="11" rx="3.5" fill="white" stroke="white"/>
</g>
<defs>
<filter id="filter0_d_74_764" x="55.4706" y="42.0353" width="369.153" height="281.059" filterUnits="userSpaceOnUse" color-interpolation-filters="sRGB">
<feFlood flood-opacity="0" result="BackgroundImageFix"/>
<feColorMatrix in="SourceAlpha" type="matrix" values="0 0 0 0 0 0 0 0 0 0 0 0 0 0 0 0 0 0 127 0" result="hardAlpha"/>
<feOffset dy="4"/>
<feGaussianBlur stdDeviation="2"/>
<feComposite in2="hardAlpha" operator="out"/>
<feColorMatrix type="matrix" values="0 0 0 0 0 0 0 0 0 0 0 0 0 0 0 0 0 0 0.25 0"/>
<feBlend mode="normal" in2="BackgroundImageFix" result="effect1_dropShadow_74_764"/>
<feBlend mode="normal" in="SourceGraphic" in2="effect1_dropShadow_74_764" result="shape"/>
</filter>
<filter id="filter1_d_74_764" x="254.118" y="292.635" width="233.882" height="71.2471" filterUnits="userSpaceOnUse" color-interpolation-filters="sRGB">
<feFlood flood-opacity="0" result="BackgroundImageFix"/>
<feColorMatrix in="SourceAlpha" type="matrix" values="0 0 0 0 0 0 0 0 0 0 0 0 0 0 0 0 0 0 127 0" result="hardAlpha"/>
<feOffset dy="4"/>
<feGaussianBlur stdDeviation="2"/>
<feComposite in2="hardAlpha" operator="out"/>
<feColorMatrix type="matrix" values="0 0 0 0 0 0 0 0 0 0 0 0 0 0 0 0 0 0 0.25 0"/>
<feBlend mode="normal" in2="BackgroundImageFix" result="effect1_dropShadow_74_764"/>
<feBlend mode="normal" in="SourceGraphic" in2="effect1_dropShadow_74_764" result="shape"/>
</filter>
<filter id="filter2_d_74_764" x="0" y="0.117645" width="355.859" height="62.2118" filterUnits="userSpaceOnUse" color-interpolation-filters="sRGB">
<feFlood flood-opacity="0" result="BackgroundImageFix"/>
<feColorMatrix in="SourceAlpha" type="matrix" values="0 0 0 0 0 0 0 0 0 0 0 0 0 0 0 0 0 0 127 0" result="hardAlpha"/>
<feOffset dy="4"/>
<feGaussianBlur stdDeviation="2"/>
<feComposite in2="hardAlpha" operator="out"/>
<feColorMatrix type="matrix" values="0 0 0 0 0 0 0 0 0 0 0 0 0 0 0 0 0 0 0.25 0"/>
<feBlend mode="normal" in2="BackgroundImageFix" result="effect1_dropShadow_74_764"/>
<feBlend mode="normal" in="SourceGraphic" in2="effect1_dropShadow_74_764" result="shape"/>
</filter>
</defs>
</svg>
